<?xml version="1.0" encoding="UTF-8" standalone="no"?>
<!-- Created with Inkscape (http://www.inkscape.org/) -->

<svg
   xmlns:dc="http://purl.org/dc/elements/1.1/"
   xmlns:cc="http://creativecommons.org/ns#"
   xmlns:rdf="http://www.w3.org/1999/02/22-rdf-syntax-ns#"
   xmlns:svg="http://www.w3.org/2000/svg"
   xmlns="http://www.w3.org/2000/svg"
   xmlns:sodipodi="http://sodipodi.sourceforge.net/DTD/sodipodi-0.dtd"
   xmlns:inkscape="http://www.inkscape.org/namespaces/inkscape"
   width="270"
   height="270"
   id="svg2"
   version="1.1"
   inkscape:version="0.48.4 r9939"
   sodipodi:docname="consistency_graph.svg">
  <defs
     id="defs4" />
  <sodipodi:namedview
     id="base"
     pagecolor="#ffffff"
     bordercolor="#666666"
     borderopacity="1.0"
     inkscape:pageopacity="0.0"
     inkscape:pageshadow="2"
     inkscape:zoom="1.7933333"
     inkscape:cx="201.11524"
     inkscape:cy="149.22386"
     inkscape:document-units="px"
     inkscape:current-layer="layer1"
     showgrid="false"
     showguides="true"
     inkscape:guide-bbox="true"
     inkscape:window-width="1280"
     inkscape:window-height="753"
     inkscape:window-x="0"
     inkscape:window-y="25"
     inkscape:window-maximized="1" />
  <metadata
     id="metadata7">
    <rdf:RDF>
      <cc:Work
         rdf:about="">
        <dc:format>image/svg+xml</dc:format>
        <dc:type
           rdf:resource="http://purl.org/dc/dcmitype/StillImage" />
        <dc:title />
      </cc:Work>
    </rdf:RDF>
  </metadata>
  <g
     inkscape:label="Layer 1"
     inkscape:groupmode="layer"
     id="layer1"
     transform="translate(0,-782.36218)">
    <path
       style="fill:none;stroke:#45ff00;stroke-width:2;stroke-linecap:butt;stroke-linejoin:miter;stroke-miterlimit:4;stroke-opacity:1;stroke-dasharray:none"
       d="m 39.739778,824.94954 37.918212,0 0,57.43506 0,60.2231 40.1487,0 0,-59.1078 0,-58.55036 39.59107,0 0,119.33106 40.1487,0 0,-119.33106 40.1487,0 0,119.88866"
       id="path3140-4"
       inkscape:connector-curvature="0"
       sodipodi:nodetypes="ccccccccccccc" />
    <path
       style="fill:none;stroke:#ec5200;stroke-width:2;stroke-linecap:butt;stroke-linejoin:miter;stroke-miterlimit:4;stroke-opacity:1;stroke-dasharray:none"
       d="m 36.394052,944.83818 37.918218,0 0,-57.43511 0,-60.22305 40.1487,0 0,59.10781 0,58.55035 39.59107,0 0,-119.33102 40.1487,0 0,119.33102 40.1487,0 0,-119.88864"
       id="path3140"
       inkscape:connector-curvature="0"
       sodipodi:nodetypes="ccccccccccccc" />
    <path
       sodipodi:type="arc"
       style="fill:#000000;fill-opacity:1;stroke-width:1;stroke-miterlimit:4;stroke-dasharray:none"
       id="path2985"
       sodipodi:cx="75"
       sodipodi:cy="49.907063"
       sodipodi:rx="4.7397771"
       sodipodi:ry="4.7397771"
       d="m 79.739777,49.907063 a 4.7397771,4.7397771 0 1 1 -9.479554,0 4.7397771,4.7397771 0 1 1 9.479554,0 z"
       transform="translate(-40,776.36218)" />
    <path
       transform="translate(0,776.36218)"
       sodipodi:type="arc"
       style="fill:#000000;fill-opacity:1;stroke-width:1;stroke-miterlimit:4;stroke-dasharray:none"
       id="path2985-7"
       sodipodi:cx="75"
       sodipodi:cy="49.907063"
       sodipodi:rx="4.7397771"
       sodipodi:ry="4.7397771"
       d="m 79.739777,49.907063 a 4.7397771,4.7397771 0 1 1 -9.479554,0 4.7397771,4.7397771 0 1 1 9.479554,0 z" />
    <path
       transform="translate(39.999997,776.36218)"
       sodipodi:type="arc"
       style="fill:#000000;fill-opacity:1;stroke-width:1;stroke-miterlimit:4;stroke-dasharray:none"
       id="path2985-7-6"
       sodipodi:cx="75"
       sodipodi:cy="49.907063"
       sodipodi:rx="4.7397771"
       sodipodi:ry="4.7397771"
       d="m 79.739777,49.907063 a 4.7397771,4.7397771 0 1 1 -9.479554,0 4.7397771,4.7397771 0 1 1 9.479554,0 z" />
    <path
       transform="translate(80,776.36218)"
       sodipodi:type="arc"
       style="fill:#000000;fill-opacity:1;stroke-width:1;stroke-miterlimit:4;stroke-dasharray:none"
       id="path2985-7-6-7"
       sodipodi:cx="75"
       sodipodi:cy="49.907063"
       sodipodi:rx="4.7397771"
       sodipodi:ry="4.7397771"
       d="m 79.739777,49.907063 a 4.7397771,4.7397771 0 1 1 -9.479554,0 4.7397771,4.7397771 0 1 1 9.479554,0 z" />
    <path
       transform="translate(120,776.36218)"
       sodipodi:type="arc"
       style="fill:#000000;fill-opacity:1;stroke-width:1;stroke-miterlimit:4;stroke-dasharray:none"
       id="path2985-7-6-7-7"
       sodipodi:cx="75"
       sodipodi:cy="49.907063"
       sodipodi:rx="4.7397771"
       sodipodi:ry="4.7397771"
       d="m 79.739777,49.907063 a 4.7397771,4.7397771 0 1 1 -9.479554,0 4.7397771,4.7397771 0 1 1 9.479554,0 z" />
    <path
       transform="translate(160,776.36218)"
       sodipodi:type="arc"
       style="fill:#000000;fill-opacity:1;stroke-width:1;stroke-miterlimit:4;stroke-dasharray:none"
       id="path2985-7-6-7-7-5"
       sodipodi:cx="75"
       sodipodi:cy="49.907063"
       sodipodi:rx="4.7397771"
       sodipodi:ry="4.7397771"
       d="m 79.739777,49.907063 a 4.7397771,4.7397771 0 1 1 -9.479554,0 4.7397771,4.7397771 0 1 1 9.479554,0 z" />
    <path
       transform="translate(-40,896.36218)"
       sodipodi:type="arc"
       style="fill:#000000;fill-opacity:1;stroke-width:1;stroke-miterlimit:4;stroke-dasharray:none"
       id="path2985-0"
       sodipodi:cx="75"
       sodipodi:cy="49.907063"
       sodipodi:rx="4.7397771"
       sodipodi:ry="4.7397771"
       d="m 79.739777,49.907063 a 4.7397771,4.7397771 0 1 1 -9.479554,0 4.7397771,4.7397771 0 1 1 9.479554,0 z" />
    <path
       transform="translate(0,896.36218)"
       sodipodi:type="arc"
       style="fill:#000000;fill-opacity:1;stroke-width:1;stroke-miterlimit:4;stroke-dasharray:none"
       id="path2985-7-0"
       sodipodi:cx="75"
       sodipodi:cy="49.907063"
       sodipodi:rx="4.7397771"
       sodipodi:ry="4.7397771"
       d="m 79.739777,49.907063 a 4.7397771,4.7397771 0 1 1 -9.479554,0 4.7397771,4.7397771 0 1 1 9.479554,0 z" />
    <path
       transform="translate(39.999997,896.36218)"
       sodipodi:type="arc"
       style="fill:#000000;fill-opacity:1;stroke-width:1;stroke-miterlimit:4;stroke-dasharray:none"
       id="path2985-7-6-9"
       sodipodi:cx="75"
       sodipodi:cy="49.907063"
       sodipodi:rx="4.7397771"
       sodipodi:ry="4.7397771"
       d="m 79.739777,49.907063 a 4.7397771,4.7397771 0 1 1 -9.479554,0 4.7397771,4.7397771 0 1 1 9.479554,0 z" />
    <path
       transform="translate(80,896.36218)"
       sodipodi:type="arc"
       style="fill:#000000;fill-opacity:1;stroke-width:1;stroke-miterlimit:4;stroke-dasharray:none"
       id="path2985-7-6-7-5"
       sodipodi:cx="75"
       sodipodi:cy="49.907063"
       sodipodi:rx="4.7397771"
       sodipodi:ry="4.7397771"
       d="m 79.739777,49.907063 a 4.7397771,4.7397771 0 1 1 -9.479554,0 4.7397771,4.7397771 0 1 1 9.479554,0 z" />
    <path
       transform="translate(120,896.36218)"
       sodipodi:type="arc"
       style="fill:#000000;fill-opacity:1;stroke-width:1;stroke-miterlimit:4;stroke-dasharray:none"
       id="path2985-7-6-7-7-6"
       sodipodi:cx="75"
       sodipodi:cy="49.907063"
       sodipodi:rx="4.7397771"
       sodipodi:ry="4.7397771"
       d="m 79.739777,49.907063 a 4.7397771,4.7397771 0 1 1 -9.479554,0 4.7397771,4.7397771 0 1 1 9.479554,0 z" />
    <path
       transform="translate(160,896.36218)"
       sodipodi:type="arc"
       style="fill:#000000;fill-opacity:1;stroke-width:1;stroke-miterlimit:4;stroke-dasharray:none"
       id="path2985-7-6-7-7-5-0"
       sodipodi:cx="75"
       sodipodi:cy="49.907063"
       sodipodi:rx="4.7397771"
       sodipodi:ry="4.7397771"
       d="m 79.739777,49.907063 a 4.7397771,4.7397771 0 1 1 -9.479554,0 4.7397771,4.7397771 0 1 1 9.479554,0 z" />
    <path
       transform="translate(-3e-6,836.36218)"
       sodipodi:type="arc"
       style="fill:#000000;fill-opacity:1;stroke-width:1;stroke-miterlimit:4;stroke-dasharray:none"
       id="path2985-7-1"
       sodipodi:cx="75"
       sodipodi:cy="49.907063"
       sodipodi:rx="4.7397771"
       sodipodi:ry="4.7397771"
       d="m 79.739777,49.907063 a 4.7397771,4.7397771 0 1 1 -9.479554,0 4.7397771,4.7397771 0 1 1 9.479554,0 z" />
    <path
       transform="translate(39.999994,836.36218)"
       sodipodi:type="arc"
       style="fill:#000000;fill-opacity:1;stroke-width:1;stroke-miterlimit:4;stroke-dasharray:none"
       id="path2985-7-6-1"
       sodipodi:cx="75"
       sodipodi:cy="49.907063"
       sodipodi:rx="4.7397771"
       sodipodi:ry="4.7397771"
       d="m 79.739777,49.907063 a 4.7397771,4.7397771 0 1 1 -9.479554,0 4.7397771,4.7397771 0 1 1 9.479554,0 z" />
    <path
       transform="translate(80,836.36218)"
       sodipodi:type="arc"
       style="fill:#000000;fill-opacity:1;stroke-width:1;stroke-miterlimit:4;stroke-dasharray:none"
       id="path2985-7-6-7-0"
       sodipodi:cx="75"
       sodipodi:cy="49.907063"
       sodipodi:rx="4.7397771"
       sodipodi:ry="4.7397771"
       d="m 79.739777,49.907063 a 4.7397771,4.7397771 0 1 1 -9.479554,0 4.7397771,4.7397771 0 1 1 9.479554,0 z" />
    <path
       transform="translate(120,836.36218)"
       sodipodi:type="arc"
       style="fill:#000000;fill-opacity:1;stroke-width:1;stroke-miterlimit:4;stroke-dasharray:none"
       id="path2985-7-6-7-7-58"
       sodipodi:cx="75"
       sodipodi:cy="49.907063"
       sodipodi:rx="4.7397771"
       sodipodi:ry="4.7397771"
       d="m 79.739777,49.907063 a 4.7397771,4.7397771 0 1 1 -9.479554,0 4.7397771,4.7397771 0 1 1 9.479554,0 z" />
    <path
       transform="translate(160,836.36218)"
       sodipodi:type="arc"
       style="fill:#000000;fill-opacity:1;stroke-width:1;stroke-miterlimit:4;stroke-dasharray:none"
       id="path2985-7-6-7-7-5-3"
       sodipodi:cx="75"
       sodipodi:cy="49.907063"
       sodipodi:rx="4.7397771"
       sodipodi:ry="4.7397771"
       d="m 79.739777,49.907063 a 4.7397771,4.7397771 0 1 1 -9.479554,0 4.7397771,4.7397771 0 1 1 9.479554,0 z" />
    <flowRoot
       xml:space="preserve"
       id="flowRoot3930"
       style="font-size:20px;font-style:normal;font-weight:normal;line-height:125%;letter-spacing:0px;word-spacing:0px;fill:#ec5200;fill-opacity:1;stroke:none;font-family:Sans"
       transform="translate(-84.535318,769.74508)"><flowRegion
         id="flowRegion3932"><rect
           id="rect3934"
           width="182.89963"
           height="27.323441"
           x="137.73235"
           y="211.33829"
           style="font-size:20px;fill:#ec5200;fill-opacity:1" /></flowRegion><flowPara
         id="flowPara3936"
         style="font-style:normal;font-variant:normal;font-weight:normal;font-stretch:normal;font-family:Gentium Basic;-inkscape-font-specification:Gentium Basic">Hamiltonian Path #1</flowPara></flowRoot>    <flowRoot
       xml:space="preserve"
       id="flowRoot3938"
       style="font-size:40px;font-style:normal;font-weight:normal;line-height:125%;letter-spacing:0px;word-spacing:0px;fill:#45ff00;fill-opacity:1;stroke:none;font-family:Sans"
       transform="translate(-15.947958,745.76738)"><flowRegion
         id="flowRegion3940"><rect
           id="rect3942"
           width="193.49443"
           height="46.282528"
           x="68.029739"
           y="262.6394"
           style="fill:#45ff00;fill-opacity:1" /></flowRegion><flowPara
         id="flowPara3944"
         style="font-size:20px;font-style:normal;font-variant:normal;font-weight:normal;font-stretch:normal;fill:#45ff00;fill-opacity:1;font-family:Gentium Basic;-inkscape-font-specification:Gentium Basic">Hamiltonian Path #2</flowPara></flowRoot>  </g>
</svg>
