<?xml version="1.0" encoding="UTF-8" standalone="no"?>
<!-- Created with Inkscape (http://www.inkscape.org/) -->

<svg
   xmlns:dc="http://purl.org/dc/elements/1.1/"
   xmlns:cc="http://creativecommons.org/ns#"
   xmlns:rdf="http://www.w3.org/1999/02/22-rdf-syntax-ns#"
   xmlns:svg="http://www.w3.org/2000/svg"
   xmlns="http://www.w3.org/2000/svg"
   xmlns:sodipodi="http://sodipodi.sourceforge.net/DTD/sodipodi-0.dtd"
   xmlns:inkscape="http://www.inkscape.org/namespaces/inkscape"
   width="300"
   height="400"
   id="svg2"
   version="1.1"
   inkscape:version="0.48.4 r9939"
   sodipodi:docname="New document 1">
  <defs
     id="defs4">
    <marker
       inkscape:stockid="Arrow1Mstart"
       orient="auto"
       refY="0"
       refX="0"
       id="Arrow1Mstart"
       style="overflow:visible">
      <path
         inkscape:connector-curvature="0"
         id="path3880"
         d="M 0,0 5,-5 -12.5,0 5,5 0,0 z"
         style="fill-rule:evenodd;stroke:#000000;stroke-width:1pt"
         transform="matrix(0.4,0,0,0.4,4,0)" />
    </marker>
    <marker
       inkscape:stockid="Arrow1Mend"
       orient="auto"
       refY="0"
       refX="0"
       id="Arrow1Mend"
       style="overflow:visible">
      <path
         inkscape:connector-curvature="0"
         id="path3883"
         d="M 0,0 5,-5 -12.5,0 5,5 0,0 z"
         style="fill-rule:evenodd;stroke:#000000;stroke-width:1pt"
         transform="matrix(-0.4,0,0,-0.4,-4,0)" />
    </marker>
    <marker
       inkscape:stockid="Arrow1Mstart"
       orient="auto"
       refY="0"
       refX="0"
       id="marker3045"
       style="overflow:visible">
      <path
         inkscape:connector-curvature="0"
         id="path3047"
         d="M 0,0 5,-5 -12.5,0 5,5 0,0 z"
         style="fill-rule:evenodd;stroke:#000000;stroke-width:1pt"
         transform="matrix(0.4,0,0,0.4,4,0)" />
    </marker>
    <marker
       inkscape:stockid="Arrow1Mend"
       orient="auto"
       refY="0"
       refX="0"
       id="marker3049"
       style="overflow:visible">
      <path
         inkscape:connector-curvature="0"
         id="path3051"
         d="M 0,0 5,-5 -12.5,0 5,5 0,0 z"
         style="fill-rule:evenodd;stroke:#000000;stroke-width:1pt"
         transform="matrix(-0.4,0,0,-0.4,-4,0)" />
    </marker>
    <marker
       inkscape:stockid="Arrow1Mstart"
       orient="auto"
       refY="0"
       refX="0"
       id="marker3053"
       style="overflow:visible">
      <path
         inkscape:connector-curvature="0"
         id="path3055"
         d="M 0,0 5,-5 -12.5,0 5,5 0,0 z"
         style="fill-rule:evenodd;stroke:#000000;stroke-width:1pt"
         transform="matrix(0.4,0,0,0.4,4,0)" />
    </marker>
    <marker
       inkscape:stockid="Arrow1Mend"
       orient="auto"
       refY="0"
       refX="0"
       id="marker3057"
       style="overflow:visible">
      <path
         inkscape:connector-curvature="0"
         id="path3059"
         d="M 0,0 5,-5 -12.5,0 5,5 0,0 z"
         style="fill-rule:evenodd;stroke:#000000;stroke-width:1pt"
         transform="matrix(-0.4,0,0,-0.4,-4,0)" />
    </marker>
  </defs>
  <sodipodi:namedview
     id="base"
     pagecolor="#ffffff"
     bordercolor="#666666"
     borderopacity="1.0"
     inkscape:pageopacity="0.0"
     inkscape:pageshadow="2"
     inkscape:zoom="1.345"
     inkscape:cx="150"
     inkscape:cy="200"
     inkscape:document-units="px"
     inkscape:current-layer="layer1"
     showgrid="false"
     inkscape:window-width="1280"
     inkscape:window-height="751"
     inkscape:window-x="0"
     inkscape:window-y="25"
     inkscape:window-maximized="1" />
  <metadata
     id="metadata7">
    <rdf:RDF>
      <cc:Work
         rdf:about="">
        <dc:format>image/svg+xml</dc:format>
        <dc:type
           rdf:resource="http://purl.org/dc/dcmitype/StillImage" />
        <dc:title></dc:title>
      </cc:Work>
    </rdf:RDF>
  </metadata>
  <g
     inkscape:label="Layer 1"
     inkscape:groupmode="layer"
     id="layer1"
     transform="translate(0,-652.36218)">
    <path
       transform="matrix(0.64882943,0,0,0.64882943,-30.717267,653.34103)"
       sodipodi:type="arc"
       style="fill:#000000;fill-opacity:1;stroke:none"
       id="path3753"
       sodipodi:cx="149.44238"
       sodipodi:cy="86.431229"
       sodipodi:rx="4.4609666"
       sodipodi:ry="4.4609666"
       d="m 153.90335,86.431229 a 4.4609666,4.4609666 0 1 1 -8.92193,0 4.4609666,4.4609666 0 1 1 8.92193,0 z" />
    <path
       transform="matrix(0.64882943,0,0,0.64882943,-69.64703,705.24738)"
       sodipodi:type="arc"
       style="fill:#000000;fill-opacity:1;stroke:none"
       id="path3753-6"
       sodipodi:cx="149.44238"
       sodipodi:cy="86.431229"
       sodipodi:rx="4.4609666"
       sodipodi:ry="4.4609666"
       d="m 153.90335,86.431229 a 4.4609666,4.4609666 0 1 1 -8.92193,0 4.4609666,4.4609666 0 1 1 8.92193,0 z" />
    <path
       transform="matrix(0.64882943,0,0,0.64882943,8.212502,705.24738)"
       sodipodi:type="arc"
       style="fill:#000000;fill-opacity:1;stroke:none"
       id="path3753-6-4"
       sodipodi:cx="149.44238"
       sodipodi:cy="86.431229"
       sodipodi:rx="4.4609666"
       sodipodi:ry="4.4609666"
       d="m 153.90335,86.431229 a 4.4609666,4.4609666 0 1 1 -8.92193,0 4.4609666,4.4609666 0 1 1 8.92193,0 z" />
    <path
       style="fill:none;stroke:#000000;stroke-width:0.64882946px;stroke-linecap:butt;stroke-linejoin:miter;stroke-opacity:1"
       d="m 27.532664,761.51946 37.989086,-51.37571 39.43629,51.73752 z"
       id="path3856"
       inkscape:connector-curvature="0" />
    <path
       sodipodi:type="arc"
       style="fill:#000000;fill-opacity:1;stroke-width:1;stroke-miterlimit:4;stroke-dasharray:none"
       id="path3753-0"
       sodipodi:cx="150.55762"
       sodipodi:cy="53.531597"
       sodipodi:rx="13.382899"
       sodipodi:ry="13.382899"
       d="m 163.94052,53.531597 a 13.382899,13.382899 0 1 1 -26.7658,0 13.382899,13.382899 0 1 1 26.7658,0 z"
       transform="matrix(0.285873,0,0,0.285873,199.91068,656.02562)" />
    <path
       sodipodi:type="arc"
       style="fill:#000000;fill-opacity:1;stroke-width:1;stroke-miterlimit:4;stroke-dasharray:none"
       id="path3753-1"
       sodipodi:cx="150.55762"
       sodipodi:cy="53.531597"
       sodipodi:rx="13.382899"
       sodipodi:ry="13.382899"
       d="m 163.94052,53.531597 a 13.382899,13.382899 0 1 1 -26.7658,0 13.382899,13.382899 0 1 1 26.7658,0 z"
       transform="matrix(0.285873,0,0,0.285873,199.91068,690.33038)" />
    <path
       sodipodi:type="arc"
       style="fill:#000000;fill-opacity:1;stroke-width:1;stroke-miterlimit:4;stroke-dasharray:none"
       id="path3753-1-8"
       sodipodi:cx="150.55762"
       sodipodi:cy="53.531597"
       sodipodi:rx="13.382899"
       sodipodi:ry="13.382899"
       d="m 163.94052,53.531597 a 13.382899,13.382899 0 1 1 -26.7658,0 13.382899,13.382899 0 1 1 26.7658,0 z"
       transform="matrix(0.285873,0,0,0.285873,199.91068,747.50498)" />
    <path
       sodipodi:type="arc"
       style="fill:#000000;fill-opacity:1;stroke-width:1;stroke-miterlimit:4;stroke-dasharray:none"
       id="path3753-1-8-7"
       sodipodi:cx="150.55762"
       sodipodi:cy="53.531597"
       sodipodi:rx="13.382899"
       sodipodi:ry="13.382899"
       d="m 163.94052,53.531597 a 13.382899,13.382899 0 1 1 -26.7658,0 13.382899,13.382899 0 1 1 26.7658,0 z"
       transform="matrix(0.285873,0,0,0.285873,199.91068,781.80974)" />
    <path
       style="fill:none;stroke:#000000;stroke-width:0.57174599px;stroke-linecap:butt;stroke-linejoin:miter;stroke-opacity:1;marker-start:none;marker-end:none"
       d="m 241.67578,705.76115 c -26.25653,19.59981 -19.95635,38.31651 1.27527,57.06832"
       id="path3809"
       inkscape:connector-curvature="0"
       sodipodi:nodetypes="cc" />
    <path
       style="fill:none;stroke:#000000;stroke-width:0.57174599px;stroke-linecap:butt;stroke-linejoin:miter;stroke-opacity:1;marker-end:none"
       d="m 243.53538,705.44233 c 26.25653,19.59981 21.55043,37.9977 0.31882,56.74951"
       id="path3809-0"
       inkscape:connector-curvature="0"
       sodipodi:nodetypes="cc" />
    <path
       style="fill:none;stroke:#000000;stroke-width:0.57174599px;stroke-linecap:butt;stroke-linejoin:miter;stroke-opacity:1;marker-end:none"
       d="m 242.63223,672.73591 0,29.3312"
       id="path4472"
       inkscape:connector-curvature="0" />
    <path
       style="fill:none;stroke:#000000;stroke-width:0.57174599px;stroke-linecap:butt;stroke-linejoin:miter;stroke-opacity:1;marker-end:none"
       d="m 242.63223,764.21527 0,29.33123"
       id="path4472-1"
       inkscape:connector-curvature="0" />
    <path
       sodipodi:type="arc"
       style="fill:#000000;fill-opacity:1;stroke-width:1;stroke-miterlimit:4;stroke-dasharray:none"
       id="path3753-0"
       sodipodi:cx="150.55762"
       sodipodi:cy="53.531597"
       sodipodi:rx="13.382899"
       sodipodi:ry="13.382899"
       d="m 163.94052,53.531597 a 13.382899,13.382899 0 1 1 -26.7658,0 13.382899,13.382899 0 1 1 26.7658,0 z"
       transform="matrix(0.285873,0,0,0.285873,199.91068,780.02562)" />
    <path
       sodipodi:type="arc"
       style="fill:#000000;fill-opacity:1;stroke-width:1;stroke-miterlimit:4;stroke-dasharray:none"
       id="path3753-1"
       sodipodi:cx="150.55762"
       sodipodi:cy="53.531597"
       sodipodi:rx="13.382899"
       sodipodi:ry="13.382899"
       d="m 163.94052,53.531597 a 13.382899,13.382899 0 1 1 -26.7658,0 13.382899,13.382899 0 1 1 26.7658,0 z"
       transform="matrix(0.285873,0,0,0.285873,199.91068,814.33038)" />
    <path
       sodipodi:type="arc"
       style="fill:#000000;fill-opacity:1;stroke-width:1;stroke-miterlimit:4;stroke-dasharray:none"
       id="path3753-1-8"
       sodipodi:cx="150.55762"
       sodipodi:cy="53.531597"
       sodipodi:rx="13.382899"
       sodipodi:ry="13.382899"
       d="m 163.94052,53.531597 a 13.382899,13.382899 0 1 1 -26.7658,0 13.382899,13.382899 0 1 1 26.7658,0 z"
       transform="matrix(0.285873,0,0,0.285873,199.91068,871.50498)" />
    <path
       sodipodi:type="arc"
       style="fill:#000000;fill-opacity:1;stroke-width:1;stroke-miterlimit:4;stroke-dasharray:none"
       id="path3753-1-8-7"
       sodipodi:cx="150.55762"
       sodipodi:cy="53.531597"
       sodipodi:rx="13.382899"
       sodipodi:ry="13.382899"
       d="m 163.94052,53.531597 a 13.382899,13.382899 0 1 1 -26.7658,0 13.382899,13.382899 0 1 1 26.7658,0 z"
       transform="matrix(0.285873,0,0,0.285873,199.91068,905.80974)" />
    <path
       style="fill:none;stroke:#000000;stroke-width:0.57174599px;stroke-linecap:butt;stroke-linejoin:miter;stroke-opacity:1;marker-start:none;marker-end:none"
       d="m 241.67578,829.76115 c -26.25653,19.59981 -19.95635,38.31651 1.27527,57.06832"
       id="path3809"
       inkscape:connector-curvature="0"
       sodipodi:nodetypes="cc" />
    <path
       style="fill:none;stroke:#000000;stroke-width:0.57174599px;stroke-linecap:butt;stroke-linejoin:miter;stroke-opacity:1;marker-end:none"
       d="m 243.53538,829.44233 c 26.25653,19.59981 21.55043,37.9977 0.31882,56.74951"
       id="path3809-0"
       inkscape:connector-curvature="0"
       sodipodi:nodetypes="cc" />
    <path
       style="fill:none;stroke:#000000;stroke-width:0.57174599px;stroke-linecap:butt;stroke-linejoin:miter;stroke-opacity:1;marker-end:none"
       d="m 242.63223,796.73591 0,29.3312"
       id="path4472"
       inkscape:connector-curvature="0" />
    <path
       style="fill:none;stroke:#000000;stroke-width:0.57174599px;stroke-linecap:butt;stroke-linejoin:miter;stroke-opacity:1;marker-end:none"
       d="m 242.63223,888.21527 0,29.33123"
       id="path4472-1"
       inkscape:connector-curvature="0" />
    <path
       transform="matrix(0.64882943,0,0,0.64882943,-30.717267,773.34103)"
       sodipodi:type="arc"
       style="fill:#000000;fill-opacity:1;stroke:none"
       id="path3753-8"
       sodipodi:cx="149.44238"
       sodipodi:cy="86.431229"
       sodipodi:rx="4.4609666"
       sodipodi:ry="4.4609666"
       d="m 153.90335,86.431229 a 4.4609666,4.4609666 0 1 1 -8.92193,0 4.4609666,4.4609666 0 1 1 8.92193,0 z" />
    <path
       transform="matrix(0.64882943,0,0,0.64882943,-69.64703,825.24738)"
       sodipodi:type="arc"
       style="fill:#000000;fill-opacity:1;stroke:none"
       id="path3753-6-46"
       sodipodi:cx="149.44238"
       sodipodi:cy="86.431229"
       sodipodi:rx="4.4609666"
       sodipodi:ry="4.4609666"
       d="m 153.90335,86.431229 a 4.4609666,4.4609666 0 1 1 -8.92193,0 4.4609666,4.4609666 0 1 1 8.92193,0 z" />
    <path
       transform="matrix(0.64882943,0,0,0.64882943,8.2125023,825.24738)"
       sodipodi:type="arc"
       style="fill:#000000;fill-opacity:1;stroke:none"
       id="path3753-6-4-8"
       sodipodi:cx="149.44238"
       sodipodi:cy="86.431229"
       sodipodi:rx="4.4609666"
       sodipodi:ry="4.4609666"
       d="m 153.90335,86.431229 a 4.4609666,4.4609666 0 1 1 -8.92193,0 4.4609666,4.4609666 0 1 1 8.92193,0 z" />
    <path
       style="fill:none;stroke:#000000;stroke-width:0.64882946px;stroke-linecap:butt;stroke-linejoin:miter;stroke-opacity:1"
       d="m 27.532665,881.51946 37.989085,-51.37571 39.43629,51.73752 z"
       id="path3856-6"
       inkscape:connector-curvature="0" />
    <path
       style="fill:none;stroke:#009400;stroke-width:1px;stroke-linecap:butt;stroke-linejoin:miter;stroke-opacity:1;marker-start:url(#marker3053);marker-end:url(#marker3057)"
       d="M 42.379182,74.349442 C 28.56363,-18.294468 148.87296,68.910893 212.63941,80.297398"
       id="path3217"
       inkscape:connector-curvature="0"
       transform="translate(0,652.36218)"
       sodipodi:nodetypes="cc" />
    <path
       style="fill:none;stroke:#009400;stroke-width:1px;stroke-linecap:butt;stroke-linejoin:miter;stroke-opacity:1;marker-start:url(#marker3053);marker-end:url(#marker3057)"
       d="M 101.11524,77.32342 208.92193,194.79554"
       id="path4023"
       inkscape:connector-curvature="0"
       transform="translate(0,652.36218)" />
    <path
       sodipodi:type="arc"
       style="fill:#000000;fill-opacity:1;stroke-width:1;stroke-miterlimit:4;stroke-dasharray:none"
       id="path3753-1-8-7-7"
       sodipodi:cx="150.55762"
       sodipodi:cy="53.531597"
       sodipodi:rx="13.382899"
       sodipodi:ry="13.382899"
       d="m 163.94052,53.531597 a 13.382899,13.382899 0 1 1 -26.7658,0 13.382899,13.382899 0 1 1 26.7658,0 z"
       transform="matrix(0.285873,0,0,0.285873,199.91068,781.80974)" />
    <path
       sodipodi:type="arc"
       style="fill:#000000;fill-opacity:1;stroke-width:1;stroke-miterlimit:4;stroke-dasharray:none"
       id="path3753-0-5"
       sodipodi:cx="150.55762"
       sodipodi:cy="53.531597"
       sodipodi:rx="13.382899"
       sodipodi:ry="13.382899"
       d="m 163.94052,53.531597 a 13.382899,13.382899 0 1 1 -26.7658,0 13.382899,13.382899 0 1 1 26.7658,0 z"
       transform="matrix(0.285873,0,0,0.285873,199.91068,780.02562)" />
    <path
       sodipodi:type="arc"
       style="fill:#000000;fill-opacity:1;stroke-width:1;stroke-miterlimit:4;stroke-dasharray:none"
       id="path3753-1-2"
       sodipodi:cx="150.55762"
       sodipodi:cy="53.531597"
       sodipodi:rx="13.382899"
       sodipodi:ry="13.382899"
       d="m 163.94052,53.531597 a 13.382899,13.382899 0 1 1 -26.7658,0 13.382899,13.382899 0 1 1 26.7658,0 z"
       transform="matrix(0.285873,0,0,0.285873,199.91068,814.33038)" />
    <path
       sodipodi:type="arc"
       style="fill:#000000;fill-opacity:1;stroke-width:1;stroke-miterlimit:4;stroke-dasharray:none"
       id="path3753-1-8-0"
       sodipodi:cx="150.55762"
       sodipodi:cy="53.531597"
       sodipodi:rx="13.382899"
       sodipodi:ry="13.382899"
       d="m 163.94052,53.531597 a 13.382899,13.382899 0 1 1 -26.7658,0 13.382899,13.382899 0 1 1 26.7658,0 z"
       transform="matrix(0.285873,0,0,0.285873,199.91068,871.50498)" />
    <path
       sodipodi:type="arc"
       style="fill:#000000;fill-opacity:1;stroke-width:1;stroke-miterlimit:4;stroke-dasharray:none"
       id="path4039"
       sodipodi:cx="150.55762"
       sodipodi:cy="53.531597"
       sodipodi:rx="13.382899"
       sodipodi:ry="13.382899"
       d="m 163.94052,53.531597 a 13.382899,13.382899 0 1 1 -26.7658,0 13.382899,13.382899 0 1 1 26.7658,0 z"
       transform="matrix(0.285873,0,0,0.285873,199.91068,905.80974)" />
    <path
       style="fill:none;stroke:#000000;stroke-width:0.57174599px;stroke-linecap:butt;stroke-linejoin:miter;stroke-opacity:1;marker-start:none;marker-end:none"
       d="m 241.67578,829.76115 c -26.25653,19.59981 -19.95635,38.31651 1.27527,57.06832"
       id="path3809-1"
       inkscape:connector-curvature="0"
       sodipodi:nodetypes="cc" />
    <path
       style="fill:none;stroke:#000000;stroke-width:0.57174599px;stroke-linecap:butt;stroke-linejoin:miter;stroke-opacity:1;marker-end:none"
       d="m 242.63223,796.73591 0,29.3312"
       id="path4472-2"
       inkscape:connector-curvature="0" />
    <path
       style="fill:none;stroke:#000000;stroke-width:0.57174599px;stroke-linecap:butt;stroke-linejoin:miter;stroke-opacity:1;marker-end:none"
       d="m 242.63223,888.21527 0,29.33123"
       id="path4472-1-9"
       inkscape:connector-curvature="0" />
    <path
       sodipodi:type="arc"
       style="fill:#000000;fill-opacity:1;stroke-width:1;stroke-miterlimit:4;stroke-dasharray:none"
       id="path3753-1-8-7-9"
       sodipodi:cx="150.55762"
       sodipodi:cy="53.531597"
       sodipodi:rx="13.382899"
       sodipodi:ry="13.382899"
       d="m 163.94052,53.531597 a 13.382899,13.382899 0 1 1 -26.7658,0 13.382899,13.382899 0 1 1 26.7658,0 z"
       transform="matrix(0.285873,0,0,0.285873,199.91068,905.80974)" />
    <path
       sodipodi:type="arc"
       style="fill:#000000;fill-opacity:1;stroke-width:1;stroke-miterlimit:4;stroke-dasharray:none"
       id="path3753-0-3"
       sodipodi:cx="150.55762"
       sodipodi:cy="53.531597"
       sodipodi:rx="13.382899"
       sodipodi:ry="13.382899"
       d="m 163.94052,53.531597 a 13.382899,13.382899 0 1 1 -26.7658,0 13.382899,13.382899 0 1 1 26.7658,0 z"
       transform="matrix(0.285873,0,0,0.285873,199.91068,904.02562)" />
    <path
       sodipodi:type="arc"
       style="fill:#000000;fill-opacity:1;stroke-width:1;stroke-miterlimit:4;stroke-dasharray:none"
       id="path3753-1-3"
       sodipodi:cx="150.55762"
       sodipodi:cy="53.531597"
       sodipodi:rx="13.382899"
       sodipodi:ry="13.382899"
       d="m 163.94052,53.531597 a 13.382899,13.382899 0 1 1 -26.7658,0 13.382899,13.382899 0 1 1 26.7658,0 z"
       transform="matrix(0.285873,0,0,0.285873,199.91068,938.33038)" />
    <path
       sodipodi:type="arc"
       style="fill:#000000;fill-opacity:1;stroke-width:1;stroke-miterlimit:4;stroke-dasharray:none"
       id="path3753-1-8-8"
       sodipodi:cx="150.55762"
       sodipodi:cy="53.531597"
       sodipodi:rx="13.382899"
       sodipodi:ry="13.382899"
       d="m 163.94052,53.531597 a 13.382899,13.382899 0 1 1 -26.7658,0 13.382899,13.382899 0 1 1 26.7658,0 z"
       transform="matrix(0.285873,0,0,0.285873,199.91068,995.50498)" />
    <path
       sodipodi:type="arc"
       style="fill:#000000;fill-opacity:1;stroke-width:1;stroke-miterlimit:4;stroke-dasharray:none"
       id="path4079"
       sodipodi:cx="150.55762"
       sodipodi:cy="53.531597"
       sodipodi:rx="13.382899"
       sodipodi:ry="13.382899"
       d="m 163.94052,53.531597 a 13.382899,13.382899 0 1 1 -26.7658,0 13.382899,13.382899 0 1 1 26.7658,0 z"
       transform="matrix(0.285873,0,0,0.285873,199.91068,1029.8097)" />
    <path
       style="fill:none;stroke:#000000;stroke-width:0.57174599px;stroke-linecap:butt;stroke-linejoin:miter;stroke-opacity:1;marker-start:none;marker-end:none"
       d="m 241.67578,953.76115 c -26.25653,19.59981 -19.95635,38.31651 1.27527,57.06835"
       id="path3809-5"
       inkscape:connector-curvature="0"
       sodipodi:nodetypes="cc" />
    <path
       style="fill:none;stroke:#000000;stroke-width:0.57174599px;stroke-linecap:butt;stroke-linejoin:miter;stroke-opacity:1;marker-end:none"
       d="m 243.53538,953.44233 c 26.25653,19.59981 21.55043,37.9977 0.31882,56.74947"
       id="path3809-0-5"
       inkscape:connector-curvature="0"
       sodipodi:nodetypes="cc" />
    <path
       style="fill:none;stroke:#000000;stroke-width:0.57174599px;stroke-linecap:butt;stroke-linejoin:miter;stroke-opacity:1;marker-end:none"
       d="m 242.63223,920.73591 0,29.3312"
       id="path4472-8"
       inkscape:connector-curvature="0" />
    <path
       style="fill:none;stroke:#000000;stroke-width:0.57174599px;stroke-linecap:butt;stroke-linejoin:miter;stroke-opacity:1;marker-end:none"
       d="m 242.63223,1012.2153 0,29.3312"
       id="path4472-1-5"
       inkscape:connector-curvature="0" />
    <path
       sodipodi:type="arc"
       style="fill:#000000;fill-opacity:1;stroke-width:1;stroke-miterlimit:4;stroke-dasharray:none"
       id="path3753-1-8-7-7-6"
       sodipodi:cx="150.55762"
       sodipodi:cy="53.531597"
       sodipodi:rx="13.382899"
       sodipodi:ry="13.382899"
       d="m 163.94052,53.531597 a 13.382899,13.382899 0 1 1 -26.7658,0 13.382899,13.382899 0 1 1 26.7658,0 z"
       transform="matrix(0.285873,0,0,0.285873,199.91068,905.80974)" />
    <path
       sodipodi:type="arc"
       style="fill:#000000;fill-opacity:1;stroke-width:1;stroke-miterlimit:4;stroke-dasharray:none"
       id="path3753-0-5-4"
       sodipodi:cx="150.55762"
       sodipodi:cy="53.531597"
       sodipodi:rx="13.382899"
       sodipodi:ry="13.382899"
       d="m 163.94052,53.531597 a 13.382899,13.382899 0 1 1 -26.7658,0 13.382899,13.382899 0 1 1 26.7658,0 z"
       transform="matrix(0.285873,0,0,0.285873,199.91068,904.02562)" />
    <path
       sodipodi:type="arc"
       style="fill:#000000;fill-opacity:1;stroke-width:1;stroke-miterlimit:4;stroke-dasharray:none"
       id="path3753-1-2-3"
       sodipodi:cx="150.55762"
       sodipodi:cy="53.531597"
       sodipodi:rx="13.382899"
       sodipodi:ry="13.382899"
       d="m 163.94052,53.531597 a 13.382899,13.382899 0 1 1 -26.7658,0 13.382899,13.382899 0 1 1 26.7658,0 z"
       transform="matrix(0.285873,0,0,0.285873,199.91068,938.33038)" />
    <path
       sodipodi:type="arc"
       style="fill:#000000;fill-opacity:1;stroke-width:1;stroke-miterlimit:4;stroke-dasharray:none"
       id="path3753-1-8-0-2"
       sodipodi:cx="150.55762"
       sodipodi:cy="53.531597"
       sodipodi:rx="13.382899"
       sodipodi:ry="13.382899"
       d="m 163.94052,53.531597 a 13.382899,13.382899 0 1 1 -26.7658,0 13.382899,13.382899 0 1 1 26.7658,0 z"
       transform="matrix(0.285873,0,0,0.285873,199.91068,995.50498)" />
    <path
       sodipodi:type="arc"
       style="fill:#000000;fill-opacity:1;stroke-width:1;stroke-miterlimit:4;stroke-dasharray:none"
       id="path4039-5"
       sodipodi:cx="150.55762"
       sodipodi:cy="53.531597"
       sodipodi:rx="13.382899"
       sodipodi:ry="13.382899"
       d="m 163.94052,53.531597 a 13.382899,13.382899 0 1 1 -26.7658,0 13.382899,13.382899 0 1 1 26.7658,0 z"
       transform="matrix(0.285873,0,0,0.285873,199.91068,1029.8097)" />
    <path
       style="fill:none;stroke:#000000;stroke-width:0.57174599px;stroke-linecap:butt;stroke-linejoin:miter;stroke-opacity:1;marker-start:none;marker-end:none"
       d="m 241.67578,953.76115 c -26.25653,19.59981 -19.95635,38.31651 1.27527,57.06835"
       id="path3809-1-7"
       inkscape:connector-curvature="0"
       sodipodi:nodetypes="cc" />
    <path
       style="fill:none;stroke:#000000;stroke-width:0.57174599px;stroke-linecap:butt;stroke-linejoin:miter;stroke-opacity:1;marker-end:none"
       d="m 242.63223,920.73591 0,29.3312"
       id="path4472-2-2"
       inkscape:connector-curvature="0" />
    <path
       style="fill:none;stroke:#000000;stroke-width:0.57174599px;stroke-linecap:butt;stroke-linejoin:miter;stroke-opacity:1;marker-end:none"
       d="m 242.63223,1012.2153 0,29.3312"
       id="path4472-1-9-1"
       inkscape:connector-curvature="0" />
    <path
       style="fill:none;stroke:#009400;stroke-width:1px;stroke-linecap:butt;stroke-linejoin:miter;stroke-opacity:1;marker-start:url(#marker3053);marker-end:url(#marker3057)"
       d="M 71.375465,118.95911 220.07435,322.67658"
       id="path4132"
       inkscape:connector-curvature="0"
       transform="translate(0,652.36218)" />
    <path
       style="fill:none;stroke:#ffaa00;stroke-width:1px;stroke-linecap:butt;stroke-linejoin:miter;stroke-opacity:1;marker-start:url(#marker3053);marker-end:url(#marker3057)"
       d="M 97.39777,202.23048 C 174.99806,161.35094 301.19519,113.99182 269.14498,87.732342"
       id="path4710"
       inkscape:connector-curvature="0"
       transform="translate(0,652.36218)"
       sodipodi:nodetypes="cc" />
    <path
       style="fill:none;stroke:#ffaa00;stroke-width:1px;stroke-linecap:butt;stroke-linejoin:miter;stroke-opacity:1;marker-end:url(#marker3057);marker-start:url(#marker3053)"
       d="m 61.710037,243.86617 c -4.177799,18.3509 239.030653,51.89854 211.895913,-35.68773"
       id="path4712"
       inkscape:connector-curvature="0"
       transform="translate(0,652.36218)"
       sodipodi:nodetypes="cc" />
  </g>
</svg>
