<?xml version="1.0" encoding="UTF-8" standalone="no"?>
<!-- Created with Inkscape (http://www.inkscape.org/) -->

<svg
   xmlns:dc="http://purl.org/dc/elements/1.1/"
   xmlns:cc="http://creativecommons.org/ns#"
   xmlns:rdf="http://www.w3.org/1999/02/22-rdf-syntax-ns#"
   xmlns:svg="http://www.w3.org/2000/svg"
   xmlns="http://www.w3.org/2000/svg"
   xmlns:sodipodi="http://sodipodi.sourceforge.net/DTD/sodipodi-0.dtd"
   xmlns:inkscape="http://www.inkscape.org/namespaces/inkscape"
   width="300"
   height="300"
   id="svg2"
   version="1.1"
   inkscape:version="0.48.4 r9939"
   sodipodi:docname="New document 1">
  <defs
     id="defs4">
    <marker
       inkscape:stockid="Arrow1Mend"
       orient="auto"
       refY="0.0"
       refX="0.0"
       id="Arrow1Mend"
       style="overflow:visible;">
      <path
         id="path3845"
         d="M 0.0,0.0 L 5.0,-5.0 L -12.5,0.0 L 5.0,5.0 L 0.0,0.0 z "
         style="fill-rule:evenodd;stroke:#000000;stroke-width:1.0pt;"
         transform="scale(0.4) rotate(180) translate(10,0)" />
    </marker>
    <marker
       inkscape:stockid="Arrow1Mend"
       orient="auto"
       refY="0"
       refX="0"
       id="Arrow1Mend-2"
       style="overflow:visible">
      <path
         inkscape:connector-curvature="0"
         id="path3845-9"
         d="M 0,0 5,-5 -12.5,0 5,5 0,0 z"
         style="fill-rule:evenodd;stroke:#000000;stroke-width:1pt"
         transform="matrix(-0.4,0,0,-0.4,-4,0)" />
    </marker>
    <marker
       inkscape:stockid="Arrow1Mend"
       orient="auto"
       refY="0"
       refX="0"
       id="Arrow1Mend-3"
       style="overflow:visible">
      <path
         inkscape:connector-curvature="0"
         id="path3845-6"
         d="M 0,0 5,-5 -12.5,0 5,5 0,0 z"
         style="fill-rule:evenodd;stroke:#000000;stroke-width:1pt"
         transform="matrix(-0.4,0,0,-0.4,-4,0)" />
    </marker>
    <marker
       inkscape:stockid="Arrow1Mend"
       orient="auto"
       refY="0"
       refX="0"
       id="Arrow1Mend-5"
       style="overflow:visible">
      <path
         inkscape:connector-curvature="0"
         id="path3845-68"
         d="M 0,0 5,-5 -12.5,0 5,5 0,0 z"
         style="fill-rule:evenodd;stroke:#000000;stroke-width:1pt"
         transform="matrix(-0.4,0,0,-0.4,-4,0)" />
    </marker>
    <marker
       inkscape:stockid="Arrow1Mend"
       orient="auto"
       refY="0"
       refX="0"
       id="Arrow1Mend-51"
       style="overflow:visible">
      <path
         inkscape:connector-curvature="0"
         id="path3845-7"
         d="M 0,0 5,-5 -12.5,0 5,5 0,0 z"
         style="fill-rule:evenodd;stroke:#000000;stroke-width:1pt"
         transform="matrix(-0.4,0,0,-0.4,-4,0)" />
    </marker>
    <marker
       inkscape:stockid="Arrow1Mend"
       orient="auto"
       refY="0"
       refX="0"
       id="marker4707"
       style="overflow:visible">
      <path
         inkscape:connector-curvature="0"
         id="path4709"
         d="M 0,0 5,-5 -12.5,0 5,5 0,0 z"
         style="fill-rule:evenodd;stroke:#000000;stroke-width:1pt"
         transform="matrix(-0.4,0,0,-0.4,-4,0)" />
    </marker>
  </defs>
  <sodipodi:namedview
     id="base"
     pagecolor="#ffffff"
     bordercolor="#666666"
     borderopacity="1.0"
     inkscape:pageopacity="0.0"
     inkscape:pageshadow="2"
     inkscape:zoom="1.7933333"
     inkscape:cx="150"
     inkscape:cy="209.79671"
     inkscape:document-units="px"
     inkscape:current-layer="layer1"
     showgrid="false"
     inkscape:window-width="1280"
     inkscape:window-height="751"
     inkscape:window-x="0"
     inkscape:window-y="25"
     inkscape:window-maximized="1" />
  <metadata
     id="metadata7">
    <rdf:RDF>
      <cc:Work
         rdf:about="">
        <dc:format>image/svg+xml</dc:format>
        <dc:type
           rdf:resource="http://purl.org/dc/dcmitype/StillImage" />
        <dc:title></dc:title>
      </cc:Work>
    </rdf:RDF>
  </metadata>
  <g
     inkscape:label="Layer 1"
     inkscape:groupmode="layer"
     id="layer1"
     transform="translate(0,-752.3622)">
    <flowRoot
       xml:space="preserve"
       id="flowRoot2985"
       style="font-size:20px;font-style:normal;font-weight:normal;line-height:125%;letter-spacing:0px;word-spacing:0px;fill:#000000;fill-opacity:1;stroke:none;font-family:Sans"
       transform="translate(8.9219331,766.30272)"><flowRegion
         id="flowRegion2987"><rect
           id="rect2989"
           width="49.070633"
           height="43.494423"
           x="8.9219332"
           y="3.3457248" /></flowRegion><flowPara
         id="flowPara2991"
         style="fill:#800000">(1)</flowPara></flowRoot>    <flowRoot
       xml:space="preserve"
       id="flowRoot2985-6"
       style="font-size:20px;font-style:normal;font-weight:normal;line-height:125%;letter-spacing:0px;word-spacing:0px;fill:#000000;fill-opacity:1;stroke:none;font-family:Sans"
       transform="translate(30.419294,916.02214)"><flowRegion
         id="flowRegion2987-9"><rect
           id="rect2989-9"
           width="49.070633"
           height="43.494423"
           x="8.9219332"
           y="3.3457248" /></flowRegion><flowPara
         id="flowPara2991-5"
         style="fill:#800000">(2)</flowPara></flowRoot>    <flowRoot
       xml:space="preserve"
       id="flowRoot2985-0"
       style="font-size:20px;font-style:normal;font-weight:normal;line-height:125%;letter-spacing:0px;word-spacing:0px;fill:#000000;fill-opacity:1;stroke:none;font-family:Sans"
       transform="translate(178.74643,865.83627)"><flowRegion
         id="flowRegion2987-3"><rect
           id="rect2989-3"
           width="49.070633"
           height="43.494423"
           x="8.9219332"
           y="3.3457248" /></flowRegion><flowPara
         id="flowPara2991-3"
         style="fill:#800000">(3)</flowPara></flowRoot>    <path
       sodipodi:type="arc"
       style="fill:#000000;fill-opacity:1;stroke:none"
       id="path3033"
       sodipodi:cx="64.684013"
       sodipodi:cy="93.680298"
       sodipodi:rx="4.4609666"
       sodipodi:ry="4.4609666"
       d="m 69.14498,93.680298 a 4.4609666,4.4609666 0 1 1 -8.921933,0 4.4609666,4.4609666 0 1 1 8.921933,0 z"
       transform="translate(-37.360595,721.13543)" />
    <path
       sodipodi:type="arc"
       style="fill:#000000;fill-opacity:1;stroke:none"
       id="path3033-8"
       sodipodi:cx="64.684013"
       sodipodi:cy="93.680298"
       sodipodi:rx="4.4609666"
       sodipodi:ry="4.4609666"
       d="m 69.14498,93.680298 a 4.4609666,4.4609666 0 1 1 -8.921933,0 4.4609666,4.4609666 0 1 1 8.921933,0 z"
       transform="translate(20.074351,756.26554)" />
    <path
       sodipodi:type="arc"
       style="fill:#000000;fill-opacity:1;stroke:none"
       id="path3033-5"
       sodipodi:cx="64.684013"
       sodipodi:cy="93.680298"
       sodipodi:rx="4.4609666"
       sodipodi:ry="4.4609666"
       d="m 69.14498,93.680298 a 4.4609666,4.4609666 0 1 1 -8.921933,0 4.4609666,4.4609666 0 1 1 8.921933,0 z"
       transform="translate(47.955388,718.34733)" />
    <path
       style="fill:none;stroke:#000000;stroke-width:1px;stroke-linecap:butt;stroke-linejoin:miter;stroke-opacity:1;marker-end:url(#Arrow1Mend)"
       d="m 28.996282,813.70049 c 33.961053,-11.51839 46.972187,4.60071 55.901487,31.36617"
       id="path3828"
       inkscape:connector-curvature="0"
       sodipodi:nodetypes="cc" />
    <path
       style="fill:none;stroke:#000000;stroke-width:1px;stroke-linecap:butt;stroke-linejoin:miter;stroke-opacity:1;marker-end:url(#Arrow1Mend)"
       d="M 84.200739,852.17632 C 53.264328,853.85121 31.570488,850.27283 27.32342,820.81016"
       id="path3830"
       inkscape:connector-curvature="0"
       sodipodi:nodetypes="cc" />
    <path
       style="fill:none;stroke:#000000;stroke-width:1px;stroke-linecap:butt;stroke-linejoin:miter;stroke-opacity:1;marker-end:url(#Arrow1Mend)"
       d="M 117.65799,810.91239 C 157.6375,789.74042 89.270708,775.60761 105.39034,808.12428"
       id="path4458"
       inkscape:connector-curvature="0"
       sodipodi:nodetypes="cc" />
    <path
       sodipodi:type="arc"
       style="fill:#000000;fill-opacity:1;stroke:none"
       id="path3033-5-2"
       sodipodi:cx="64.684013"
       sodipodi:cy="93.680298"
       sodipodi:rx="4.4609666"
       sodipodi:ry="4.4609666"
       d="m 69.14498,93.680298 a 4.4609666,4.4609666 0 1 1 -8.921933,0 4.4609666,4.4609666 0 1 1 8.921933,0 z"
       transform="translate(168.59643,857.85481)" />
    <path
       style="fill:none;stroke:#000000;stroke-width:1px;stroke-linecap:butt;stroke-linejoin:miter;stroke-opacity:1;marker-end:url(#Arrow1Mend)"
       d="m 238.29903,950.41987 c 39.97951,-21.17197 -28.38728,-35.30478 -12.26765,-2.78811"
       id="path4458-9"
       inkscape:connector-curvature="0"
       sodipodi:nodetypes="cc" />
    <path
       sodipodi:type="arc"
       style="fill:#000000;fill-opacity:1;stroke:none"
       id="path3033-5-29"
       sodipodi:cx="64.684013"
       sodipodi:cy="93.680298"
       sodipodi:rx="4.4609666"
       sodipodi:ry="4.4609666"
       d="m 69.14498,93.680298 a 4.4609666,4.4609666 0 1 1 -8.921933,0 4.4609666,4.4609666 0 1 1 8.921933,0 z"
       transform="translate(131.79346,884.06299)" />
    <path
       style="fill:none;stroke:#000000;stroke-width:1px;stroke-linecap:butt;stroke-linejoin:miter;stroke-opacity:1;marker-end:url(#Arrow1Mend)"
       d="m 201.49606,976.62805 c 39.97951,-21.17197 -28.38728,-35.30478 -12.26765,-2.78811"
       id="path4458-92"
       inkscape:connector-curvature="0"
       sodipodi:nodetypes="cc" />
    <path
       sodipodi:type="arc"
       style="fill:#000000;fill-opacity:1;stroke:none"
       id="path3033-5-0"
       sodipodi:cx="64.684013"
       sodipodi:cy="93.680298"
       sodipodi:rx="4.4609666"
       sodipodi:ry="4.4609666"
       d="m 69.14498,93.680298 a 4.4609666,4.4609666 0 1 1 -8.921933,0 4.4609666,4.4609666 0 1 1 8.921933,0 z"
       transform="translate(191.45888,822.16708)" />
    <path
       style="fill:none;stroke:#000000;stroke-width:1px;stroke-linecap:butt;stroke-linejoin:miter;stroke-opacity:1;marker-end:url(#Arrow1Mend)"
       d="m 261.16148,914.73214 c 39.97951,-21.17197 -28.38728,-35.30478 -12.26765,-2.78811"
       id="path4458-5"
       inkscape:connector-curvature="0"
       sodipodi:nodetypes="cc" />
    <path
       sodipodi:type="arc"
       style="fill:#000000;fill-opacity:1;stroke:none"
       id="path3033-6"
       sodipodi:cx="64.684013"
       sodipodi:cy="93.680298"
       sodipodi:rx="4.4609666"
       sodipodi:ry="4.4609666"
       d="m 69.14498,93.680298 a 4.4609666,4.4609666 0 1 1 -8.921933,0 4.4609666,4.4609666 0 1 1 8.921933,0 z"
       transform="translate(-43.773234,891.95129)" />
    <path
       sodipodi:type="arc"
       style="fill:#000000;fill-opacity:1;stroke:none"
       id="path3033-8-6"
       sodipodi:cx="64.684013"
       sodipodi:cy="93.680298"
       sodipodi:rx="4.4609666"
       sodipodi:ry="4.4609666"
       d="m 69.14498,93.680298 a 4.4609666,4.4609666 0 1 1 -8.921933,0 4.4609666,4.4609666 0 1 1 8.921933,0 z"
       transform="translate(13.661712,927.0814)" />
    <path
       style="fill:none;stroke:#000000;stroke-width:1px;stroke-linecap:butt;stroke-linejoin:miter;stroke-opacity:1;marker-end:url(#Arrow1Mend)"
       d="m 22.583643,984.51636 c 15.559566,-34.38085 54.221258,-22.1651 71.51487,-7.66722"
       id="path3828-5"
       inkscape:connector-curvature="0"
       sodipodi:nodetypes="cc" />
    <path
       style="fill:none;stroke:#000000;stroke-width:1px;stroke-linecap:butt;stroke-linejoin:miter;stroke-opacity:1;marker-end:url(#Arrow1Mend)"
       d="m 77.7881,1022.9922 c -30.936411,1.6749 -52.630251,-1.9035 -56.877319,-31.36624"
       id="path3830-4"
       inkscape:connector-curvature="0"
       sodipodi:nodetypes="cc" />
    <path
       sodipodi:type="arc"
       style="fill:#000000;fill-opacity:1;stroke:none"
       id="path3033-8-6-5"
       sodipodi:cx="64.684013"
       sodipodi:cy="93.680298"
       sodipodi:rx="4.4609666"
       sodipodi:ry="4.4609666"
       d="m 69.14498,93.680298 a 4.4609666,4.4609666 0 1 1 -8.921933,0 4.4609666,4.4609666 0 1 1 8.921933,0 z"
       transform="translate(32.342009,886.1912)" />
    <path
       style="fill:none;stroke:#000000;stroke-width:1px;stroke-linecap:butt;stroke-linejoin:miter;stroke-opacity:1;marker-end:url(#marker4707)"
       d="m 99.256506,230.2974 c 0.163432,16.38932 -6.677763,28.40074 -18.401487,37.36059"
       id="path4754"
       inkscape:connector-curvature="0"
       transform="translate(0,752.3622)"
       sodipodi:nodetypes="cc" />
  </g>
</svg>
