<?xml version="1.0" encoding="UTF-8" standalone="no"?>
<!-- Created with Inkscape (http://www.inkscape.org/) -->

<svg
   xmlns:dc="http://purl.org/dc/elements/1.1/"
   xmlns:cc="http://creativecommons.org/ns#"
   xmlns:rdf="http://www.w3.org/1999/02/22-rdf-syntax-ns#"
   xmlns:svg="http://www.w3.org/2000/svg"
   xmlns="http://www.w3.org/2000/svg"
   xmlns:sodipodi="http://sodipodi.sourceforge.net/DTD/sodipodi-0.dtd"
   xmlns:inkscape="http://www.inkscape.org/namespaces/inkscape"
   width="150"
   height="150"
   id="svg2"
   version="1.1"
   inkscape:version="0.48.4 r9939"
   sodipodi:docname="tcs2_bipartite_graph_perfect_matching.svg">
  <defs
     id="defs4">
    <marker
       inkscape:stockid="Arrow1Mend"
       orient="auto"
       refY="0"
       refX="0"
       id="Arrow1Mend"
       style="overflow:visible">
      <path
         id="path3887"
         d="M 0,0 5,-5 -12.5,0 5,5 0,0 z"
         style="fill-rule:evenodd;stroke:#000000;stroke-width:1pt"
         transform="matrix(-0.4,0,0,-0.4,-4,0)"
         inkscape:connector-curvature="0" />
    </marker>
  </defs>
  <sodipodi:namedview
     id="base"
     pagecolor="#ffffff"
     bordercolor="#666666"
     borderopacity="1.0"
     inkscape:pageopacity="0.0"
     inkscape:pageshadow="2"
     inkscape:zoom="1.82"
     inkscape:cx="59.065934"
     inkscape:cy="150"
     inkscape:document-units="px"
     inkscape:current-layer="layer1"
     showgrid="false"
     inkscape:window-width="1680"
     inkscape:window-height="1003"
     inkscape:window-x="0"
     inkscape:window-y="25"
     inkscape:window-maximized="1" />
  <metadata
     id="metadata7">
    <rdf:RDF>
      <cc:Work
         rdf:about="">
        <dc:format>image/svg+xml</dc:format>
        <dc:type
           rdf:resource="http://purl.org/dc/dcmitype/StillImage" />
        <dc:title />
      </cc:Work>
    </rdf:RDF>
  </metadata>
  <g
     inkscape:label="Layer 1"
     inkscape:groupmode="layer"
     id="layer1"
     transform="translate(0,-902.36218)">
    <path
       sodipodi:type="arc"
       style="color:#000000;fill:#000000;fill-opacity:1;fill-rule:nonzero;stroke:#ffffff;stroke-width:3;stroke-linecap:round;stroke-linejoin:round;stroke-miterlimit:4;stroke-opacity:1;stroke-dasharray:none;stroke-dashoffset:0;marker:none;visibility:visible;display:inline;overflow:visible;enable-background:accumulate"
       id="path2985"
       sodipodi:cx="39.01099"
       sodipodi:cy="49.45055"
       sodipodi:rx="6.5934067"
       sodipodi:ry="6.5934067"
       d="m 45.604397,49.45055 a 6.5934067,6.5934067 0 1 1 -13.186814,0 6.5934067,6.5934067 0 1 1 13.186814,0 z"
       transform="matrix(0.53473224,0,0,0.53473224,-4.4502095,898.40886)" />
    <path
       transform="matrix(0.53473224,0,0,0.53473224,-4.4502107,919.79815)"
       sodipodi:type="arc"
       style="color:#000000;fill:#000000;fill-opacity:1;fill-rule:nonzero;stroke:#ffffff;stroke-width:3;stroke-linecap:round;stroke-linejoin:round;stroke-miterlimit:4;stroke-opacity:1;stroke-dasharray:none;stroke-dashoffset:0;marker:none;visibility:visible;display:inline;overflow:visible;enable-background:accumulate"
       id="path2985-7"
       sodipodi:cx="39.01099"
       sodipodi:cy="49.45055"
       sodipodi:rx="6.5934067"
       sodipodi:ry="6.5934067"
       d="m 45.604397,49.45055 a 6.5934067,6.5934067 0 1 1 -13.186814,0 6.5934067,6.5934067 0 1 1 13.186814,0 z" />
    <path
       transform="matrix(0.53473224,0,0,0.53473224,-4.4502107,1005.3553)"
       sodipodi:type="arc"
       style="color:#000000;fill:#000000;fill-opacity:1;fill-rule:nonzero;stroke:#ffffff;stroke-width:3;stroke-linecap:round;stroke-linejoin:round;stroke-miterlimit:4;stroke-opacity:1;stroke-dasharray:none;stroke-dashoffset:0;marker:none;visibility:visible;display:inline;overflow:visible;enable-background:accumulate"
       id="path2985-7-0"
       sodipodi:cx="39.01099"
       sodipodi:cy="49.45055"
       sodipodi:rx="6.5934067"
       sodipodi:ry="6.5934067"
       d="m 45.604397,49.45055 a 6.5934067,6.5934067 0 1 1 -13.186814,0 6.5934067,6.5934067 0 1 1 13.186814,0 z" />
    <path
       transform="matrix(0.53473224,0,0,0.53473224,113.19089,1005.3553)"
       sodipodi:type="arc"
       style="color:#000000;fill:#000000;fill-opacity:1;fill-rule:nonzero;stroke:#ffffff;stroke-width:3;stroke-linecap:round;stroke-linejoin:round;stroke-miterlimit:4;stroke-opacity:1;stroke-dasharray:none;stroke-dashoffset:0;marker:none;visibility:visible;display:inline;overflow:visible;enable-background:accumulate"
       id="path2985-7-0-1"
       sodipodi:cx="39.01099"
       sodipodi:cy="49.45055"
       sodipodi:rx="6.5934067"
       sodipodi:ry="6.5934067"
       d="m 45.604397,49.45055 a 6.5934067,6.5934067 0 1 1 -13.186814,0 6.5934067,6.5934067 0 1 1 13.186814,0 z" />
    <path
       transform="matrix(0.53473224,0,0,0.53473224,113.19089,919.79815)"
       sodipodi:type="arc"
       style="color:#000000;fill:#000000;fill-opacity:1;fill-rule:nonzero;stroke:#ffffff;stroke-width:3;stroke-linecap:round;stroke-linejoin:round;stroke-miterlimit:4;stroke-opacity:1;stroke-dasharray:none;stroke-dashoffset:0;marker:none;visibility:visible;display:inline;overflow:visible;enable-background:accumulate"
       id="path2985-7-0-1-2"
       sodipodi:cx="39.01099"
       sodipodi:cy="49.45055"
       sodipodi:rx="6.5934067"
       sodipodi:ry="6.5934067"
       d="m 45.604397,49.45055 a 6.5934067,6.5934067 0 1 1 -13.186814,0 6.5934067,6.5934067 0 1 1 13.186814,0 z" />
    <path
       transform="matrix(0.53473224,0,0,0.53473224,113.19089,898.40886)"
       sodipodi:type="arc"
       style="color:#000000;fill:#000000;fill-opacity:1;fill-rule:nonzero;stroke:#ffffff;stroke-width:3;stroke-linecap:round;stroke-linejoin:round;stroke-miterlimit:4;stroke-opacity:1;stroke-dasharray:none;stroke-dashoffset:0;marker:none;visibility:visible;display:inline;overflow:visible;enable-background:accumulate"
       id="path2985-7-0-1-2-0"
       sodipodi:cx="39.01099"
       sodipodi:cy="49.45055"
       sodipodi:rx="6.5934067"
       sodipodi:ry="6.5934067"
       d="m 45.604397,49.45055 a 6.5934067,6.5934067 0 1 1 -13.186814,0 6.5934067,6.5934067 0 1 1 13.186814,0 z" />
    <path
       transform="matrix(0.28061644,0,0,0.28061644,5.4630978,953.7536)"
       sodipodi:type="arc"
       style="color:#000000;fill:#000000;fill-opacity:1;fill-rule:nonzero;stroke:#ffffff;stroke-width:3;stroke-linecap:round;stroke-linejoin:round;stroke-miterlimit:4;stroke-opacity:1;stroke-dasharray:none;stroke-dashoffset:0;marker:none;visibility:visible;display:inline;overflow:visible;enable-background:accumulate"
       id="path2985-7-6"
       sodipodi:cx="39.01099"
       sodipodi:cy="49.45055"
       sodipodi:rx="6.5934067"
       sodipodi:ry="6.5934067"
       d="m 45.604397,49.45055 a 6.5934067,6.5934067 0 1 1 -13.186814,0 6.5934067,6.5934067 0 1 1 13.186814,0 z" />
    <path
       transform="matrix(0.28061644,0,0,0.28061644,5.4630978,964.44824)"
       sodipodi:type="arc"
       style="color:#000000;fill:#000000;fill-opacity:1;fill-rule:nonzero;stroke:#ffffff;stroke-width:3;stroke-linecap:round;stroke-linejoin:round;stroke-miterlimit:4;stroke-opacity:1;stroke-dasharray:none;stroke-dashoffset:0;marker:none;visibility:visible;display:inline;overflow:visible;enable-background:accumulate"
       id="path2985-7-6-2"
       sodipodi:cx="39.01099"
       sodipodi:cy="49.45055"
       sodipodi:rx="6.5934067"
       sodipodi:ry="6.5934067"
       d="m 45.604397,49.45055 a 6.5934067,6.5934067 0 1 1 -13.186814,0 6.5934067,6.5934067 0 1 1 13.186814,0 z" />
    <path
       transform="matrix(0.28061644,0,0,0.28061644,5.4630978,975.14289)"
       sodipodi:type="arc"
       style="color:#000000;fill:#000000;fill-opacity:1;fill-rule:nonzero;stroke:#ffffff;stroke-width:3;stroke-linecap:round;stroke-linejoin:round;stroke-miterlimit:4;stroke-opacity:1;stroke-dasharray:none;stroke-dashoffset:0;marker:none;visibility:visible;display:inline;overflow:visible;enable-background:accumulate"
       id="path2985-7-6-2-8"
       sodipodi:cx="39.01099"
       sodipodi:cy="49.45055"
       sodipodi:rx="6.5934067"
       sodipodi:ry="6.5934067"
       d="m 45.604397,49.45055 a 6.5934067,6.5934067 0 1 1 -13.186814,0 6.5934067,6.5934067 0 1 1 13.186814,0 z" />
    <path
       transform="matrix(0.28061644,0,0,0.28061644,123.10419,953.7536)"
       sodipodi:type="arc"
       style="color:#000000;fill:#000000;fill-opacity:1;fill-rule:nonzero;stroke:#ffffff;stroke-width:3;stroke-linecap:round;stroke-linejoin:round;stroke-miterlimit:4;stroke-opacity:1;stroke-dasharray:none;stroke-dashoffset:0;marker:none;visibility:visible;display:inline;overflow:visible;enable-background:accumulate"
       id="path2985-7-6-3"
       sodipodi:cx="39.01099"
       sodipodi:cy="49.45055"
       sodipodi:rx="6.5934067"
       sodipodi:ry="6.5934067"
       d="m 45.604397,49.45055 a 6.5934067,6.5934067 0 1 1 -13.186814,0 6.5934067,6.5934067 0 1 1 13.186814,0 z" />
    <path
       transform="matrix(0.28061644,0,0,0.28061644,123.10419,964.44824)"
       sodipodi:type="arc"
       style="color:#000000;fill:#000000;fill-opacity:1;fill-rule:nonzero;stroke:#ffffff;stroke-width:3;stroke-linecap:round;stroke-linejoin:round;stroke-miterlimit:4;stroke-opacity:1;stroke-dasharray:none;stroke-dashoffset:0;marker:none;visibility:visible;display:inline;overflow:visible;enable-background:accumulate"
       id="path2985-7-6-2-6"
       sodipodi:cx="39.01099"
       sodipodi:cy="49.45055"
       sodipodi:rx="6.5934067"
       sodipodi:ry="6.5934067"
       d="m 45.604397,49.45055 a 6.5934067,6.5934067 0 1 1 -13.186814,0 6.5934067,6.5934067 0 1 1 13.186814,0 z" />
    <path
       transform="matrix(0.28061644,0,0,0.28061644,123.10419,975.14289)"
       sodipodi:type="arc"
       style="color:#000000;fill:#000000;fill-opacity:1;fill-rule:nonzero;stroke:#ffffff;stroke-width:3;stroke-linecap:round;stroke-linejoin:round;stroke-miterlimit:4;stroke-opacity:1;stroke-dasharray:none;stroke-dashoffset:0;marker:none;visibility:visible;display:inline;overflow:visible;enable-background:accumulate"
       id="path2985-7-6-2-8-2"
       sodipodi:cx="39.01099"
       sodipodi:cy="49.45055"
       sodipodi:rx="6.5934067"
       sodipodi:ry="6.5934067"
       d="m 45.604397,49.45055 a 6.5934067,6.5934067 0 1 1 -13.186814,0 6.5934067,6.5934067 0 1 1 13.186814,0 z" />
    <path
       style="fill:none;stroke:#000000;stroke-width:0.53473222px;stroke-linecap:butt;stroke-linejoin:miter;stroke-opacity:1;marker-end:url(#Arrow1Mend)"
       d="M 17.879268,925.73309 131.58332,945.7121"
       id="path3104"
       inkscape:connector-curvature="0"
       sodipodi:nodetypes="cc" />
    <path
       style="fill:none;stroke:#000000;stroke-width:0.53473222px;stroke-linecap:butt;stroke-linejoin:miter;stroke-opacity:1;marker-end:url(#Arrow1Mend)"
       d="m 16.704033,923.67642 115.760727,1.17523"
       id="path4318"
       inkscape:connector-curvature="0" />
    <path
       style="fill:none;stroke:#000000;stroke-width:0.53473222px;stroke-linecap:butt;stroke-linejoin:miter;stroke-opacity:1;marker-end:url(#Arrow1Mend)"
       d="M 133.34618,947.18114 17.585458,1031.2105"
       id="path4320"
       inkscape:connector-curvature="0" />
    <path
       style="fill:none;stroke:#000000;stroke-width:0.53473222px;stroke-linecap:butt;stroke-linejoin:miter;stroke-opacity:1;marker-end:url(#Arrow1Mend)"
       d="m 131.28952,946.88733 -113.410252,0"
       id="path4686"
       inkscape:connector-curvature="0" />
  </g>
</svg>
