<?xml version="1.0" encoding="UTF-8" standalone="no"?>
<!-- Created with Inkscape (http://www.inkscape.org/) -->

<svg
   xmlns:dc="http://purl.org/dc/elements/1.1/"
   xmlns:cc="http://creativecommons.org/ns#"
   xmlns:rdf="http://www.w3.org/1999/02/22-rdf-syntax-ns#"
   xmlns:svg="http://www.w3.org/2000/svg"
   xmlns="http://www.w3.org/2000/svg"
   xmlns:sodipodi="http://sodipodi.sourceforge.net/DTD/sodipodi-0.dtd"
   xmlns:inkscape="http://www.inkscape.org/namespaces/inkscape"
   width="250"
   height="150"
   id="svg2"
   version="1.1"
   inkscape:version="0.48.4 r9939"
   sodipodi:docname="tcs2_bipartite_graph_perfect_matching.svg">
  <sodipodi:namedview
     id="base"
     pagecolor="#ffffff"
     bordercolor="#666666"
     borderopacity="1.0"
     inkscape:pageopacity="0.0"
     inkscape:pageshadow="2"
     inkscape:zoom="2.0704087"
     inkscape:cx="100.39207"
     inkscape:cy="56.146921"
     inkscape:document-units="px"
     inkscape:current-layer="layer1"
     showgrid="false"
     inkscape:window-width="1280"
     inkscape:window-height="753"
     inkscape:window-x="0"
     inkscape:window-y="25"
     inkscape:window-maximized="1" />
  <defs
     id="defs4">
    <marker
       inkscape:stockid="Arrow1Mend"
       orient="auto"
       refY="0"
       refX="0"
       id="Arrow1Mend"
       style="overflow:visible">
      <path
         id="path3887"
         d="M 0,0 5,-5 -12.5,0 5,5 0,0 z"
         style="fill-rule:evenodd;stroke:#000000;stroke-width:1pt"
         transform="matrix(-0.4,0,0,-0.4,-4,0)"
         inkscape:connector-curvature="0" />
    </marker>
    <marker
       inkscape:stockid="Arrow1Mendi"
       orient="auto"
       refY="0"
       refX="0"
       id="Arrow1Mendi"
       style="overflow:visible">
      <path
         id="path3779"
         d="M 0,0 5,-5 -12.5,0 5,5 0,0 z"
         style="fill:#e20000;fill-rule:evenodd;stroke:#e20000;stroke-width:1pt"
         transform="matrix(-0.4,0,0,-0.4,-4,0)"
         inkscape:connector-curvature="0" />
    </marker>
    <marker
       inkscape:stockid="Arrow1Mend7"
       orient="auto"
       refY="0"
       refX="0"
       id="Arrow1Mend7"
       style="overflow:visible">
      <path
         id="path3782"
         d="M 0,0 5,-5 -12.5,0 5,5 0,0 z"
         style="fill:#e20000;fill-rule:evenodd;stroke:#e20000;stroke-width:1pt"
         transform="matrix(-0.4,0,0,-0.4,-4,0)"
         inkscape:connector-curvature="0" />
    </marker>
    <marker
       inkscape:stockid="Arrow1Mendg"
       orient="auto"
       refY="0"
       refX="0"
       id="Arrow1Mendg"
       style="overflow:visible">
      <path
         id="path3838"
         d="M 0,0 5,-5 -12.5,0 5,5 0,0 z"
         style="fill:#0000bb;fill-rule:evenodd;stroke:#0000bb;stroke-width:1pt"
         transform="matrix(-0.4,0,0,-0.4,-4,0)"
         inkscape:connector-curvature="0" />
    </marker>
    <marker
       inkscape:stockid="Arrow1MendG"
       orient="auto"
       refY="0"
       refX="0"
       id="Arrow1MendG"
       style="overflow:visible">
      <path
         id="path3841"
         d="M 0,0 5,-5 -12.5,0 5,5 0,0 z"
         style="fill:#0000bb;fill-rule:evenodd;stroke:#0000bb;stroke-width:1pt"
         transform="matrix(-0.4,0,0,-0.4,-4,0)"
         inkscape:connector-curvature="0" />
    </marker>
  </defs>
  <metadata
     id="metadata7">
    <rdf:RDF>
      <cc:Work
         rdf:about="">
        <dc:format>image/svg+xml</dc:format>
        <dc:type
           rdf:resource="http://purl.org/dc/dcmitype/StillImage" />
        <dc:title />
      </cc:Work>
    </rdf:RDF>
  </metadata>
  <g
     inkscape:label="Layer 1"
     inkscape:groupmode="layer"
     id="layer1"
     transform="translate(0,-902.36218)">
    <path
       sodipodi:type="arc"
       style="color:#000000;fill:#000000;fill-opacity:1;fill-rule:nonzero;stroke:none;stroke-width:3;marker:none;visibility:visible;display:inline;overflow:visible;enable-background:accumulate"
       id="path2985"
       sodipodi:cx="39.01099"
       sodipodi:cy="49.45055"
       sodipodi:rx="4.0386324"
       sodipodi:ry="4.0386324"
       d="m 43.049623,49.45055 a 4.0386324,4.0386324 0 1 1 -8.077265,0 4.0386324,4.0386324 0 1 1 8.077265,0 z"
       transform="matrix(0.53473224,0,0,0.53473224,-4.4502095,898.40886)" />
    <path
       style="fill:none;stroke:#e20000;stroke-width:1;stroke-linecap:round;stroke-linejoin:round;stroke-miterlimit:4;stroke-opacity:1;stroke-dasharray:none;marker-end:none"
       d="m 113.13138,924.86218 -93.628493,0"
       id="path4320"
       inkscape:connector-curvature="0"
       sodipodi:nodetypes="cc" />
    <path
       style="fill:none;stroke:#0000bb;stroke-width:1;stroke-linecap:round;stroke-linejoin:round;stroke-miterlimit:4;stroke-opacity:1;stroke-dasharray:none;marker-end:none"
       d="M 112.99216,951.15092 19.157722,926.4302"
       id="path4686"
       inkscape:connector-curvature="0"
       sodipodi:nodetypes="cc" />
    <path
       sodipodi:type="arc"
       style="color:#000000;fill:#000000;fill-opacity:1;fill-rule:nonzero;stroke:none;stroke-width:3;marker:none;visibility:visible;display:inline;overflow:visible;enable-background:accumulate"
       id="path2985-3"
       sodipodi:cx="39.01099"
       sodipodi:cy="49.45055"
       sodipodi:rx="4.0386324"
       sodipodi:ry="4.0386324"
       d="m 43.049623,49.45055 a 4.0386324,4.0386324 0 1 1 -8.077265,0 4.0386324,4.0386324 0 1 1 8.077265,0 z"
       transform="matrix(0.53473224,0,0,0.53473224,95.549791,898.40886)" />
    <path
       sodipodi:type="arc"
       style="color:#000000;fill:#000000;fill-opacity:1;fill-rule:nonzero;stroke:none;stroke-width:3;marker:none;visibility:visible;display:inline;overflow:visible;enable-background:accumulate"
       id="path2985-5"
       sodipodi:cx="39.01099"
       sodipodi:cy="49.45055"
       sodipodi:rx="4.0386324"
       sodipodi:ry="4.0386324"
       d="m 43.049623,49.45055 a 4.0386324,4.0386324 0 1 1 -8.077265,0 4.0386324,4.0386324 0 1 1 8.077265,0 z"
       transform="matrix(0.53473224,0,0,0.53473224,-4.4502092,916.40886)" />
    <path
       sodipodi:type="arc"
       style="color:#000000;fill:#000000;fill-opacity:1;fill-rule:nonzero;stroke:none;stroke-width:3;marker:none;visibility:visible;display:inline;overflow:visible;enable-background:accumulate"
       id="path2985-3-2"
       sodipodi:cx="39.01099"
       sodipodi:cy="49.45055"
       sodipodi:rx="4.0386324"
       sodipodi:ry="4.0386324"
       d="m 43.049623,49.45055 a 4.0386324,4.0386324 0 1 1 -8.077265,0 4.0386324,4.0386324 0 1 1 8.077265,0 z"
       transform="matrix(0.53473224,0,0,0.53473224,95.549791,926.40886)" />
    <path
       sodipodi:type="arc"
       style="color:#000000;fill:#000000;fill-opacity:1;fill-rule:nonzero;stroke:none;stroke-width:3;marker:none;visibility:visible;display:inline;overflow:visible;enable-background:accumulate"
       id="path2985-5-6"
       sodipodi:cx="39.01099"
       sodipodi:cy="49.45055"
       sodipodi:rx="4.0386324"
       sodipodi:ry="4.0386324"
       d="m 43.049623,49.45055 a 4.0386324,4.0386324 0 1 1 -8.077265,0 4.0386324,4.0386324 0 1 1 8.077265,0 z"
       transform="matrix(0.53473224,0,0,0.53473224,-4.4502092,936.40886)" />
    <path
       sodipodi:type="arc"
       style="color:#000000;fill:#000000;fill-opacity:1;fill-rule:nonzero;stroke:none;stroke-width:3;marker:none;visibility:visible;display:inline;overflow:visible;enable-background:accumulate"
       id="path2985-5-6-5"
       sodipodi:cx="39.01099"
       sodipodi:cy="49.45055"
       sodipodi:rx="4.0386324"
       sodipodi:ry="4.0386324"
       d="m 43.049623,49.45055 a 4.0386324,4.0386324 0 1 1 -8.077265,0 4.0386324,4.0386324 0 1 1 8.077265,0 z"
       transform="matrix(0.53473224,0,0,0.53473224,-4.4502092,956.40886)" />
    <path
       sodipodi:type="arc"
       style="color:#000000;fill:#000000;fill-opacity:1;fill-rule:nonzero;stroke:none;stroke-width:3;marker:none;visibility:visible;display:inline;overflow:visible;enable-background:accumulate"
       id="path2985-3-2-4-1"
       sodipodi:cx="39.01099"
       sodipodi:cy="49.45055"
       sodipodi:rx="4.0386324"
       sodipodi:ry="4.0386324"
       d="m 43.049623,49.45055 a 4.0386324,4.0386324 0 1 1 -8.077265,0 4.0386324,4.0386324 0 1 1 8.077265,0 z"
       transform="matrix(0.53473224,0,0,0.53473224,95.549791,956.40886)" />
    <path
       sodipodi:type="arc"
       style="color:#000000;fill:#000000;fill-opacity:1;fill-rule:nonzero;stroke:none;stroke-width:3;marker:none;visibility:visible;display:inline;overflow:visible;enable-background:accumulate"
       id="path2985-5-6-5-6"
       sodipodi:cx="39.01099"
       sodipodi:cy="49.45055"
       sodipodi:rx="4.0386324"
       sodipodi:ry="4.0386324"
       d="m 43.049623,49.45055 a 4.0386324,4.0386324 0 1 1 -8.077265,0 4.0386324,4.0386324 0 1 1 8.077265,0 z"
       transform="matrix(0.53473224,0,0,0.53473224,-4.4502092,976.40886)" />
    <path
       sodipodi:type="arc"
       style="color:#000000;fill:#000000;fill-opacity:1;fill-rule:nonzero;stroke:none;stroke-width:3;marker:none;visibility:visible;display:inline;overflow:visible;enable-background:accumulate"
       id="path2985-3-2-4-1-0"
       sodipodi:cx="39.01099"
       sodipodi:cy="49.45055"
       sodipodi:rx="4.0386324"
       sodipodi:ry="4.0386324"
       d="m 43.049623,49.45055 a 4.0386324,4.0386324 0 1 1 -8.077265,0 4.0386324,4.0386324 0 1 1 8.077265,0 z"
       transform="matrix(0.53473224,0,0,0.53473224,95.549791,976.40886)" />
    <path
       sodipodi:type="arc"
       style="color:#000000;fill:#000000;fill-opacity:1;fill-rule:nonzero;stroke:none;stroke-width:3;marker:none;visibility:visible;display:inline;overflow:visible;enable-background:accumulate"
       id="path2985-3-2-4-1-0-0"
       sodipodi:cx="39.01099"
       sodipodi:cy="49.45055"
       sodipodi:rx="4.0386324"
       sodipodi:ry="4.0386324"
       d="m 43.049623,49.45055 a 4.0386324,4.0386324 0 1 1 -8.077265,0 4.0386324,4.0386324 0 1 1 8.077265,0 z"
       transform="matrix(0.53473224,0,0,0.53473224,95.549791,996.40886)" />
    <path
       style="fill:none;stroke:#e20000;stroke-width:1;stroke-linecap:round;stroke-linejoin:round;stroke-miterlimit:4;stroke-opacity:1;stroke-dasharray:none;marker-end:none"
       d="M 113.13138,952.86218 19.673652,943.12857"
       id="path4320-2"
       inkscape:connector-curvature="0"
       sodipodi:nodetypes="cc" />
    <path
       style="fill:none;stroke:#e20000;stroke-width:1;stroke-linecap:round;stroke-linejoin:round;stroke-miterlimit:4;stroke-opacity:1;stroke-dasharray:none;marker-end:none"
       d="m 113.24184,983.03157 -93.628491,0"
       id="path4320-9"
       inkscape:connector-curvature="0"
       sodipodi:nodetypes="cc" />
    <path
       style="fill:none;stroke:#e20000;stroke-width:1;stroke-linecap:round;stroke-linejoin:round;stroke-miterlimit:4;stroke-opacity:1;stroke-dasharray:none;marker-end:none"
       d="M 113.75414,1001.2181 19.784114,963.64974"
       id="path4320-3"
       inkscape:connector-curvature="0"
       sodipodi:nodetypes="cc" />
    <path
       style="fill:none;stroke:#e20000;stroke-width:1;stroke-linecap:round;stroke-linejoin:round;stroke-miterlimit:4;stroke-opacity:1;stroke-dasharray:none;marker-end:none"
       d="M 113.24184,1022.1368 19.613349,1003.5234"
       id="path4320-7"
       inkscape:connector-curvature="0"
       sodipodi:nodetypes="cc" />
    <path
       style="fill:none;stroke:#0000bb;stroke-width:1;stroke-linecap:round;stroke-linejoin:round;stroke-miterlimit:4;stroke-opacity:1;stroke-dasharray:none;marker-end:none"
       d="m 113.51558,954.57907 -93.663673,7.63929"
       id="path4686-3"
       inkscape:connector-curvature="0"
       sodipodi:nodetypes="cc" />
    <path
       style="fill:none;stroke:#0000bb;stroke-width:1;stroke-linecap:round;stroke-linejoin:round;stroke-miterlimit:4;stroke-opacity:1;stroke-dasharray:none;marker-end:none"
       d="M 113.77173,1020.7506 19.339611,984.50318"
       id="path4686-6"
       inkscape:connector-curvature="0"
       sodipodi:nodetypes="cc" />
    <path
       sodipodi:type="arc"
       style="color:#000000;fill:#000000;fill-opacity:1;fill-rule:nonzero;stroke:none;stroke-width:3;marker:none;visibility:visible;display:inline;overflow:visible;enable-background:accumulate"
       id="path2985-9"
       sodipodi:cx="39.01099"
       sodipodi:cy="49.45055"
       sodipodi:rx="4.0386324"
       sodipodi:ry="4.0386324"
       d="m 43.049623,49.45055 a 4.0386324,4.0386324 0 1 1 -8.077265,0 4.0386324,4.0386324 0 1 1 8.077265,0 z"
       transform="matrix(0,0.53473224,-0.53473224,0,251.85303,922.99123)" />
    <path
       style="fill:none;stroke:#0000bb;stroke-width:1;stroke-linecap:round;stroke-linejoin:round;stroke-miterlimit:4;stroke-opacity:1;stroke-dasharray:none;marker-end:none"
       d="m 199.53788,1001.243 24.29381,-54.64384"
       id="path4686-7"
       inkscape:connector-curvature="0"
       sodipodi:nodetypes="cc" />
    <path
       sodipodi:type="arc"
       style="color:#000000;fill:#000000;fill-opacity:1;fill-rule:nonzero;stroke:none;stroke-width:3;marker:none;visibility:visible;display:inline;overflow:visible;enable-background:accumulate"
       id="path2985-5-7"
       sodipodi:cx="39.01099"
       sodipodi:cy="49.45055"
       sodipodi:rx="4.0386324"
       sodipodi:ry="4.0386324"
       d="m 43.049623,49.45055 a 4.0386324,4.0386324 0 1 1 -8.077265,0 4.0386324,4.0386324 0 1 1 8.077265,0 z"
       transform="matrix(0,0.53473224,-0.53473224,0,233.85303,922.99123)" />
    <path
       sodipodi:type="arc"
       style="color:#000000;fill:#000000;fill-opacity:1;fill-rule:nonzero;stroke:none;stroke-width:3;marker:none;visibility:visible;display:inline;overflow:visible;enable-background:accumulate"
       id="path2985-3-2-7"
       sodipodi:cx="39.01099"
       sodipodi:cy="49.45055"
       sodipodi:rx="4.0386324"
       sodipodi:ry="4.0386324"
       d="m 43.049623,49.45055 a 4.0386324,4.0386324 0 1 1 -8.077265,0 4.0386324,4.0386324 0 1 1 8.077265,0 z"
       transform="matrix(0,0.53473224,-0.53473224,0,223.85303,982.9912)" />
    <path
       sodipodi:type="arc"
       style="color:#000000;fill:#000000;fill-opacity:1;fill-rule:nonzero;stroke:none;stroke-width:3;marker:none;visibility:visible;display:inline;overflow:visible;enable-background:accumulate"
       id="path2985-5-6-0"
       sodipodi:cx="39.01099"
       sodipodi:cy="49.45055"
       sodipodi:rx="4.0386324"
       sodipodi:ry="4.0386324"
       d="m 43.049623,49.45055 a 4.0386324,4.0386324 0 1 1 -8.077265,0 4.0386324,4.0386324 0 1 1 8.077265,0 z"
       transform="matrix(0,0.53473224,-0.53473224,0,213.85303,922.99123)" />
    <path
       style="fill:none;stroke:#e20000;stroke-width:1;stroke-linecap:round;stroke-linejoin:round;stroke-miterlimit:4;stroke-opacity:1;stroke-dasharray:none;marker-end:none"
       d="m 197.82662,1000.6138 9.3067,-53.49871"
       id="path4320-2-8"
       inkscape:connector-curvature="0"
       sodipodi:nodetypes="cc" />
    <path
       style="fill:none;stroke:#0000bb;stroke-width:1;stroke-linecap:round;stroke-linejoin:round;stroke-miterlimit:4;stroke-opacity:1;stroke-dasharray:none;marker-end:none"
       d="m 195.85359,1000.998 -7.81006,-53.70465"
       id="path4686-3-7"
       inkscape:connector-curvature="0"
       sodipodi:nodetypes="cc" />
  </g>
</svg>
