<?xml version="1.0" encoding="UTF-8" standalone="no"?>
<!-- Created with Inkscape (http://www.inkscape.org/) -->

<svg
   xmlns:dc="http://purl.org/dc/elements/1.1/"
   xmlns:cc="http://creativecommons.org/ns#"
   xmlns:rdf="http://www.w3.org/1999/02/22-rdf-syntax-ns#"
   xmlns:svg="http://www.w3.org/2000/svg"
   xmlns="http://www.w3.org/2000/svg"
   xmlns:sodipodi="http://sodipodi.sourceforge.net/DTD/sodipodi-0.dtd"
   xmlns:inkscape="http://www.inkscape.org/namespaces/inkscape"
   width="150"
   height="150"
   id="svg2"
   version="1.1"
   inkscape:version="0.48.4 r9939"
   sodipodi:docname="tcs2_bipartite_graph_perfect_matching.svg">
  <sodipodi:namedview
     id="base"
     pagecolor="#ffffff"
     bordercolor="#666666"
     borderopacity="1.0"
     inkscape:pageopacity="0.0"
     inkscape:pageshadow="2"
     inkscape:zoom="3.84"
     inkscape:cx="92.623743"
     inkscape:cy="146.56559"
     inkscape:document-units="px"
     inkscape:current-layer="layer1"
     showgrid="false"
     inkscape:window-width="1280"
     inkscape:window-height="753"
     inkscape:window-x="0"
     inkscape:window-y="25"
     inkscape:window-maximized="1" />
  <defs
     id="defs4">
    <marker
       inkscape:stockid="Arrow1Mend"
       orient="auto"
       refY="0"
       refX="0"
       id="Arrow1Mend"
       style="overflow:visible">
      <path
         id="path3887"
         d="M 0,0 5,-5 -12.5,0 5,5 0,0 z"
         style="fill-rule:evenodd;stroke:#000000;stroke-width:1pt"
         transform="matrix(-0.4,0,0,-0.4,-4,0)"
         inkscape:connector-curvature="0" />
    </marker>
    <marker
       inkscape:stockid="Arrow1Mendi"
       orient="auto"
       refY="0"
       refX="0"
       id="Arrow1Mendi"
       style="overflow:visible">
      <path
         id="path3779"
         d="M 0,0 5,-5 -12.5,0 5,5 0,0 z"
         style="stroke:#e20000;stroke-width:1pt;fill:#e20000;fill-rule:evenodd"
         transform="matrix(-0.4,0,0,-0.4,-4,0)"
         inkscape:connector-curvature="0" />
    </marker>
    <marker
       inkscape:stockid="Arrow1Mend7"
       orient="auto"
       refY="0"
       refX="0"
       id="Arrow1Mend7"
       style="overflow:visible">
      <path
         id="path3782"
         d="M 0,0 5,-5 -12.5,0 5,5 0,0 z"
         style="stroke:#e20000;stroke-width:1pt;fill:#e20000;fill-rule:evenodd"
         transform="matrix(-0.4,0,0,-0.4,-4,0)"
         inkscape:connector-curvature="0" />
    </marker>
    <marker
       inkscape:stockid="Arrow1Mendg"
       orient="auto"
       refY="0"
       refX="0"
       id="Arrow1Mendg"
       style="overflow:visible">
      <path
         id="path3838"
         d="M 0,0 5,-5 -12.5,0 5,5 0,0 z"
         style="stroke:#0000bb;stroke-width:1pt;fill:#0000bb;fill-rule:evenodd"
         transform="matrix(-0.4,0,0,-0.4,-4,0)"
         inkscape:connector-curvature="0" />
    </marker>
    <marker
       inkscape:stockid="Arrow1MendG"
       orient="auto"
       refY="0"
       refX="0"
       id="Arrow1MendG"
       style="overflow:visible">
      <path
         id="path3841"
         d="M 0,0 5,-5 -12.5,0 5,5 0,0 z"
         style="stroke:#0000bb;stroke-width:1pt;fill:#0000bb;fill-rule:evenodd"
         transform="matrix(-0.4,0,0,-0.4,-4,0)"
         inkscape:connector-curvature="0" />
    </marker>
  </defs>
  <metadata
     id="metadata7">
    <rdf:RDF>
      <cc:Work
         rdf:about="">
        <dc:format>image/svg+xml</dc:format>
        <dc:type
           rdf:resource="http://purl.org/dc/dcmitype/StillImage" />
        <dc:title />
      </cc:Work>
    </rdf:RDF>
  </metadata>
  <g
     inkscape:label="Layer 1"
     inkscape:groupmode="layer"
     id="layer1"
     transform="translate(0,-902.36218)">
    <path
       sodipodi:type="arc"
       style="color:#000000;fill:#000000;fill-opacity:1;fill-rule:nonzero;stroke:#ffffff;stroke-width:3;stroke-linecap:round;stroke-linejoin:round;stroke-miterlimit:4;stroke-opacity:1;stroke-dasharray:none;stroke-dashoffset:0;marker:none;visibility:visible;display:inline;overflow:visible;enable-background:accumulate"
       id="path2985"
       sodipodi:cx="39.01099"
       sodipodi:cy="49.45055"
       sodipodi:rx="6.5934067"
       sodipodi:ry="6.5934067"
       d="m 45.604397,49.45055 c 0,3.641438 -2.951969,6.593407 -6.593407,6.593407 -3.641438,0 -6.593407,-2.951969 -6.593407,-6.593407 0,-3.641438 2.951969,-6.593407 6.593407,-6.593407 3.641438,0 6.593407,2.951969 6.593407,6.593407 z"
       transform="matrix(0.53473224,0,0,0.53473224,-4.4502095,898.40886)" />
    <path
       transform="matrix(0.53473224,0,0,0.53473224,-4.4502107,919.79815)"
       sodipodi:type="arc"
       style="color:#000000;fill:#000000;fill-opacity:1;fill-rule:nonzero;stroke:#ffffff;stroke-width:3;stroke-linecap:round;stroke-linejoin:round;stroke-miterlimit:4;stroke-opacity:1;stroke-dasharray:none;stroke-dashoffset:0;marker:none;visibility:visible;display:inline;overflow:visible;enable-background:accumulate"
       id="path2985-7"
       sodipodi:cx="39.01099"
       sodipodi:cy="49.45055"
       sodipodi:rx="6.5934067"
       sodipodi:ry="6.5934067"
       d="m 45.604397,49.45055 c 0,3.641438 -2.951969,6.593407 -6.593407,6.593407 -3.641438,0 -6.593407,-2.951969 -6.593407,-6.593407 0,-3.641438 2.951969,-6.593407 6.593407,-6.593407 3.641438,0 6.593407,2.951969 6.593407,6.593407 z" />
    <path
       transform="matrix(0.53473224,0,0,0.53473224,-4.4502107,1005.3553)"
       sodipodi:type="arc"
       style="color:#000000;fill:#000000;fill-opacity:1;fill-rule:nonzero;stroke:#ffffff;stroke-width:3;stroke-linecap:round;stroke-linejoin:round;stroke-miterlimit:4;stroke-opacity:1;stroke-dasharray:none;stroke-dashoffset:0;marker:none;visibility:visible;display:inline;overflow:visible;enable-background:accumulate"
       id="path2985-7-0"
       sodipodi:cx="39.01099"
       sodipodi:cy="49.45055"
       sodipodi:rx="6.5934067"
       sodipodi:ry="6.5934067"
       d="m 45.604397,49.45055 c 0,3.641438 -2.951969,6.593407 -6.593407,6.593407 -3.641438,0 -6.593407,-2.951969 -6.593407,-6.593407 0,-3.641438 2.951969,-6.593407 6.593407,-6.593407 3.641438,0 6.593407,2.951969 6.593407,6.593407 z" />
    <path
       transform="matrix(0.53473224,0,0,0.53473224,113.19089,1005.3553)"
       sodipodi:type="arc"
       style="color:#000000;fill:#000000;fill-opacity:1;fill-rule:nonzero;stroke:#ffffff;stroke-width:3;stroke-linecap:round;stroke-linejoin:round;stroke-miterlimit:4;stroke-opacity:1;stroke-dasharray:none;stroke-dashoffset:0;marker:none;visibility:visible;display:inline;overflow:visible;enable-background:accumulate"
       id="path2985-7-0-1"
       sodipodi:cx="39.01099"
       sodipodi:cy="49.45055"
       sodipodi:rx="6.5934067"
       sodipodi:ry="6.5934067"
       d="m 45.604397,49.45055 c 0,3.641438 -2.951969,6.593407 -6.593407,6.593407 -3.641438,0 -6.593407,-2.951969 -6.593407,-6.593407 0,-3.641438 2.951969,-6.593407 6.593407,-6.593407 3.641438,0 6.593407,2.951969 6.593407,6.593407 z" />
    <path
       transform="matrix(0.53473224,0,0,0.53473224,113.19089,919.79815)"
       sodipodi:type="arc"
       style="color:#000000;fill:#000000;fill-opacity:1;fill-rule:nonzero;stroke:#ffffff;stroke-width:3;stroke-linecap:round;stroke-linejoin:round;stroke-miterlimit:4;stroke-opacity:1;stroke-dasharray:none;stroke-dashoffset:0;marker:none;visibility:visible;display:inline;overflow:visible;enable-background:accumulate"
       id="path2985-7-0-1-2"
       sodipodi:cx="39.01099"
       sodipodi:cy="49.45055"
       sodipodi:rx="6.5934067"
       sodipodi:ry="6.5934067"
       d="m 45.604397,49.45055 c 0,3.641438 -2.951969,6.593407 -6.593407,6.593407 -3.641438,0 -6.593407,-2.951969 -6.593407,-6.593407 0,-3.641438 2.951969,-6.593407 6.593407,-6.593407 3.641438,0 6.593407,2.951969 6.593407,6.593407 z" />
    <path
       transform="matrix(0.53473224,0,0,0.53473224,113.19089,898.40886)"
       sodipodi:type="arc"
       style="color:#000000;fill:#000000;fill-opacity:1;fill-rule:nonzero;stroke:#ffffff;stroke-width:3;stroke-linecap:round;stroke-linejoin:round;stroke-miterlimit:4;stroke-opacity:1;stroke-dasharray:none;stroke-dashoffset:0;marker:none;visibility:visible;display:inline;overflow:visible;enable-background:accumulate"
       id="path2985-7-0-1-2-0"
       sodipodi:cx="39.01099"
       sodipodi:cy="49.45055"
       sodipodi:rx="6.5934067"
       sodipodi:ry="6.5934067"
       d="m 45.604397,49.45055 c 0,3.641438 -2.951969,6.593407 -6.593407,6.593407 -3.641438,0 -6.593407,-2.951969 -6.593407,-6.593407 0,-3.641438 2.951969,-6.593407 6.593407,-6.593407 3.641438,0 6.593407,2.951969 6.593407,6.593407 z" />
    <path
       transform="matrix(0.28061644,0,0,0.28061644,5.4630978,953.7536)"
       sodipodi:type="arc"
       style="color:#000000;fill:#000000;fill-opacity:1;fill-rule:nonzero;stroke:#ffffff;stroke-width:3;stroke-linecap:round;stroke-linejoin:round;stroke-miterlimit:4;stroke-opacity:1;stroke-dasharray:none;stroke-dashoffset:0;marker:none;visibility:visible;display:inline;overflow:visible;enable-background:accumulate"
       id="path2985-7-6"
       sodipodi:cx="39.01099"
       sodipodi:cy="49.45055"
       sodipodi:rx="6.5934067"
       sodipodi:ry="6.5934067"
       d="m 45.604397,49.45055 c 0,3.641438 -2.951969,6.593407 -6.593407,6.593407 -3.641438,0 -6.593407,-2.951969 -6.593407,-6.593407 0,-3.641438 2.951969,-6.593407 6.593407,-6.593407 3.641438,0 6.593407,2.951969 6.593407,6.593407 z" />
    <path
       transform="matrix(0.28061644,0,0,0.28061644,5.4630978,964.44824)"
       sodipodi:type="arc"
       style="color:#000000;fill:#000000;fill-opacity:1;fill-rule:nonzero;stroke:#ffffff;stroke-width:3;stroke-linecap:round;stroke-linejoin:round;stroke-miterlimit:4;stroke-opacity:1;stroke-dasharray:none;stroke-dashoffset:0;marker:none;visibility:visible;display:inline;overflow:visible;enable-background:accumulate"
       id="path2985-7-6-2"
       sodipodi:cx="39.01099"
       sodipodi:cy="49.45055"
       sodipodi:rx="6.5934067"
       sodipodi:ry="6.5934067"
       d="m 45.604397,49.45055 c 0,3.641438 -2.951969,6.593407 -6.593407,6.593407 -3.641438,0 -6.593407,-2.951969 -6.593407,-6.593407 0,-3.641438 2.951969,-6.593407 6.593407,-6.593407 3.641438,0 6.593407,2.951969 6.593407,6.593407 z" />
    <path
       transform="matrix(0.28061644,0,0,0.28061644,5.4630978,975.14289)"
       sodipodi:type="arc"
       style="color:#000000;fill:#000000;fill-opacity:1;fill-rule:nonzero;stroke:#ffffff;stroke-width:3;stroke-linecap:round;stroke-linejoin:round;stroke-miterlimit:4;stroke-opacity:1;stroke-dasharray:none;stroke-dashoffset:0;marker:none;visibility:visible;display:inline;overflow:visible;enable-background:accumulate"
       id="path2985-7-6-2-8"
       sodipodi:cx="39.01099"
       sodipodi:cy="49.45055"
       sodipodi:rx="6.5934067"
       sodipodi:ry="6.5934067"
       d="m 45.604397,49.45055 c 0,3.641438 -2.951969,6.593407 -6.593407,6.593407 -3.641438,0 -6.593407,-2.951969 -6.593407,-6.593407 0,-3.641438 2.951969,-6.593407 6.593407,-6.593407 3.641438,0 6.593407,2.951969 6.593407,6.593407 z" />
    <path
       transform="matrix(0.28061644,0,0,0.28061644,123.10419,953.7536)"
       sodipodi:type="arc"
       style="color:#000000;fill:#000000;fill-opacity:1;fill-rule:nonzero;stroke:#ffffff;stroke-width:3;stroke-linecap:round;stroke-linejoin:round;stroke-miterlimit:4;stroke-opacity:1;stroke-dasharray:none;stroke-dashoffset:0;marker:none;visibility:visible;display:inline;overflow:visible;enable-background:accumulate"
       id="path2985-7-6-3"
       sodipodi:cx="39.01099"
       sodipodi:cy="49.45055"
       sodipodi:rx="6.5934067"
       sodipodi:ry="6.5934067"
       d="m 45.604397,49.45055 c 0,3.641438 -2.951969,6.593407 -6.593407,6.593407 -3.641438,0 -6.593407,-2.951969 -6.593407,-6.593407 0,-3.641438 2.951969,-6.593407 6.593407,-6.593407 3.641438,0 6.593407,2.951969 6.593407,6.593407 z" />
    <path
       transform="matrix(0.28061644,0,0,0.28061644,123.10419,964.44824)"
       sodipodi:type="arc"
       style="color:#000000;fill:#000000;fill-opacity:1;fill-rule:nonzero;stroke:#ffffff;stroke-width:3;stroke-linecap:round;stroke-linejoin:round;stroke-miterlimit:4;stroke-opacity:1;stroke-dasharray:none;stroke-dashoffset:0;marker:none;visibility:visible;display:inline;overflow:visible;enable-background:accumulate"
       id="path2985-7-6-2-6"
       sodipodi:cx="39.01099"
       sodipodi:cy="49.45055"
       sodipodi:rx="6.5934067"
       sodipodi:ry="6.5934067"
       d="m 45.604397,49.45055 c 0,3.641438 -2.951969,6.593407 -6.593407,6.593407 -3.641438,0 -6.593407,-2.951969 -6.593407,-6.593407 0,-3.641438 2.951969,-6.593407 6.593407,-6.593407 3.641438,0 6.593407,2.951969 6.593407,6.593407 z" />
    <path
       transform="matrix(0.28061644,0,0,0.28061644,123.10419,975.14289)"
       sodipodi:type="arc"
       style="color:#000000;fill:#000000;fill-opacity:1;fill-rule:nonzero;stroke:#ffffff;stroke-width:3;stroke-linecap:round;stroke-linejoin:round;stroke-miterlimit:4;stroke-opacity:1;stroke-dasharray:none;stroke-dashoffset:0;marker:none;visibility:visible;display:inline;overflow:visible;enable-background:accumulate"
       id="path2985-7-6-2-8-2"
       sodipodi:cx="39.01099"
       sodipodi:cy="49.45055"
       sodipodi:rx="6.5934067"
       sodipodi:ry="6.5934067"
       d="m 45.604397,49.45055 c 0,3.641438 -2.951969,6.593407 -6.593407,6.593407 -3.641438,0 -6.593407,-2.951969 -6.593407,-6.593407 0,-3.641438 2.951969,-6.593407 6.593407,-6.593407 3.641438,0 6.593407,2.951969 6.593407,6.593407 z" />
    <path
       style="fill:none;stroke:#e20000;stroke-width:0.53473222px;stroke-linecap:butt;stroke-linejoin:miter;stroke-opacity:1;marker-end:url(#Arrow1Mendi)"
       d="m 19.11072,926.04383 111.19493,19.39972"
       id="path3104"
       inkscape:connector-curvature="0"
       sodipodi:nodetypes="cc" />
    <path
       style="fill:none;stroke:#0000bb;stroke-width:0.53473222px;stroke-linecap:butt;stroke-linejoin:miter;stroke-opacity:1;marker-end:url(#Arrow1MendG)"
       d="m 19.155429,923.67642 110.754351,1.17523"
       id="path4318"
       inkscape:connector-curvature="0"
       sodipodi:nodetypes="cc" />
    <path
       style="fill:none;stroke:#e20000;stroke-width:0.53473222px;stroke-linecap:butt;stroke-linejoin:miter;stroke-opacity:1;marker-end:url(#Arrow1Mend7)"
       d="M 131.8155,948.04431 18.2075,1030.2103"
       id="path4320"
       inkscape:connector-curvature="0"
       sodipodi:nodetypes="cc" />
    <path
       style="fill:none;stroke:#0000bb;stroke-width:0.53473222px;stroke-linecap:butt;stroke-linejoin:miter;stroke-opacity:1;marker-end:url(#Arrow1Mendg)"
       d="m 131.28952,946.88733 -111.039419,0"
       id="path4686"
       inkscape:connector-curvature="0"
       sodipodi:nodetypes="cc" />
  </g>
</svg>
