<?xml version="1.0" encoding="UTF-8" standalone="no"?>
<!-- Created with Inkscape (http://www.inkscape.org/) -->

<svg
   xmlns:dc="http://purl.org/dc/elements/1.1/"
   xmlns:cc="http://creativecommons.org/ns#"
   xmlns:rdf="http://www.w3.org/1999/02/22-rdf-syntax-ns#"
   xmlns:svg="http://www.w3.org/2000/svg"
   xmlns="http://www.w3.org/2000/svg"
   xmlns:sodipodi="http://sodipodi.sourceforge.net/DTD/sodipodi-0.dtd"
   xmlns:inkscape="http://www.inkscape.org/namespaces/inkscape"
   width="500"
   height="300"
   id="svg2"
   version="1.1"
   inkscape:version="0.48.4 r9939"
   sodipodi:docname="vertex_combination.svg">
  <defs
     id="defs4">
    <marker
       inkscape:stockid="Arrow1Lend"
       orient="auto"
       refY="0.0"
       refX="0.0"
       id="Arrow1Lend"
       style="overflow:visible;">
      <path
         id="path3975"
         d="M 0.0,0.0 L 5.0,-5.0 L -12.5,0.0 L 5.0,5.0 L 0.0,0.0 z "
         style="fill-rule:evenodd;stroke:#000000;stroke-width:1.0pt;"
         transform="scale(0.8) rotate(180) translate(12.5,0)" />
    </marker>
    <marker
       inkscape:stockid="Arrow1Mstart"
       orient="auto"
       refY="0"
       refX="0"
       id="Arrow1Mstart"
       style="overflow:visible">
      <path
         id="path3978"
         d="M 0,0 5,-5 -12.5,0 5,5 0,0 z"
         style="fill-rule:evenodd;stroke:#000000;stroke-width:1pt"
         transform="matrix(0.4,0,0,0.4,4,0)"
         inkscape:connector-curvature="0" />
    </marker>
    <marker
       inkscape:stockid="Arrow1Mend"
       orient="auto"
       refY="0"
       refX="0"
       id="Arrow1Mend"
       style="overflow:visible">
      <path
         id="path3981"
         d="M 0,0 5,-5 -12.5,0 5,5 0,0 z"
         style="fill-rule:evenodd;stroke:#000000;stroke-width:1pt"
         transform="matrix(-0.4,0,0,-0.4,-4,0)"
         inkscape:connector-curvature="0" />
    </marker>
    <marker
       inkscape:stockid="Arrow1Mstart"
       orient="auto"
       refY="0"
       refX="0"
       id="Arrow1Mstart-1"
       style="overflow:visible">
      <path
         inkscape:connector-curvature="0"
         id="path3978-3"
         d="M 0,0 5,-5 -12.5,0 5,5 0,0 z"
         style="fill-rule:evenodd;stroke:#000000;stroke-width:1pt"
         transform="matrix(0.4,0,0,0.4,4,0)" />
    </marker>
    <marker
       inkscape:stockid="Arrow1Mend"
       orient="auto"
       refY="0"
       refX="0"
       id="Arrow1Mend-2"
       style="overflow:visible">
      <path
         inkscape:connector-curvature="0"
         id="path3981-3"
         d="M 0,0 5,-5 -12.5,0 5,5 0,0 z"
         style="fill-rule:evenodd;stroke:#000000;stroke-width:1pt"
         transform="matrix(-0.4,0,0,-0.4,-4,0)" />
    </marker>
    <marker
       inkscape:stockid="Arrow1Mstart"
       orient="auto"
       refY="0"
       refX="0"
       id="Arrow1Mstart-3"
       style="overflow:visible">
      <path
         id="path3978-2"
         d="M 0,0 5,-5 -12.5,0 5,5 0,0 z"
         style="fill-rule:evenodd;stroke:#000000;stroke-width:1pt"
         transform="matrix(0.4,0,0,0.4,4,0)"
         inkscape:connector-curvature="0" />
    </marker>
    <marker
       inkscape:stockid="Arrow1Mend"
       orient="auto"
       refY="0"
       refX="0"
       id="Arrow1Mend-7"
       style="overflow:visible">
      <path
         id="path3981-5"
         d="M 0,0 5,-5 -12.5,0 5,5 0,0 z"
         style="fill-rule:evenodd;stroke:#000000;stroke-width:1pt"
         transform="matrix(-0.4,0,0,-0.4,-4,0)"
         inkscape:connector-curvature="0" />
    </marker>
    <marker
       inkscape:stockid="Arrow1Mstart"
       orient="auto"
       refY="0"
       refX="0"
       id="marker5039"
       style="overflow:visible">
      <path
         id="path5041"
         d="M 0,0 5,-5 -12.5,0 5,5 0,0 z"
         style="fill-rule:evenodd;stroke:#000000;stroke-width:1pt"
         transform="matrix(0.4,0,0,0.4,4,0)"
         inkscape:connector-curvature="0" />
    </marker>
    <marker
       inkscape:stockid="Arrow1Mend"
       orient="auto"
       refY="0"
       refX="0"
       id="marker5043"
       style="overflow:visible">
      <path
         id="path5045"
         d="M 0,0 5,-5 -12.5,0 5,5 0,0 z"
         style="fill-rule:evenodd;stroke:#000000;stroke-width:1pt"
         transform="matrix(-0.4,0,0,-0.4,-4,0)"
         inkscape:connector-curvature="0" />
    </marker>
  </defs>
  <sodipodi:namedview
     id="base"
     pagecolor="#ffffff"
     bordercolor="#666666"
     borderopacity="1.0"
     inkscape:pageopacity="0.0"
     inkscape:pageshadow="2"
     inkscape:zoom="1.7933333"
     inkscape:cx="268.40149"
     inkscape:cy="150"
     inkscape:document-units="px"
     inkscape:current-layer="layer1"
     showgrid="false"
     inkscape:window-width="1280"
     inkscape:window-height="751"
     inkscape:window-x="0"
     inkscape:window-y="25"
     inkscape:window-maximized="1" />
  <metadata
     id="metadata7">
    <rdf:RDF>
      <cc:Work
         rdf:about="">
        <dc:format>image/svg+xml</dc:format>
        <dc:type
           rdf:resource="http://purl.org/dc/dcmitype/StillImage" />
        <dc:title />
      </cc:Work>
    </rdf:RDF>
  </metadata>
  <g
     inkscape:label="Layer 1"
     inkscape:groupmode="layer"
     id="layer1"
     transform="translate(0,-752.36218)">
    <path
       sodipodi:type="arc"
       style="fill:#000000;fill-opacity:1;stroke:none"
       id="path3753"
       sodipodi:cx="73.605949"
       sodipodi:cy="48.513012"
       sodipodi:rx="5.0185876"
       sodipodi:ry="5.0185876"
       d="m 78.624537,48.513012 c 0,2.771689 -2.246898,5.018588 -5.018588,5.018588 -2.771689,0 -5.018587,-2.246899 -5.018587,-5.018588 0,-2.771689 2.246898,-5.018588 5.018587,-5.018588 2.77169,0 5.018588,2.246899 5.018588,5.018588 z"
       transform="matrix(0.60194464,0,0,0.60194464,12.720754,819.30677)" />
    <path
       transform="matrix(0.60194464,0,0,0.60194464,12.720754,855.42345)"
       sodipodi:type="arc"
       style="fill:#000000;fill-opacity:1;stroke:none"
       id="path3753-0"
       sodipodi:cx="73.605949"
       sodipodi:cy="48.513012"
       sodipodi:rx="5.0185876"
       sodipodi:ry="5.0185876"
       d="m 78.624537,48.513012 c 0,2.771689 -2.246898,5.018588 -5.018588,5.018588 -2.771689,0 -5.018587,-2.246899 -5.018587,-5.018588 0,-2.771689 2.246898,-5.018588 5.018587,-5.018588 2.77169,0 5.018588,2.246899 5.018588,5.018588 z" />
    <path
       transform="matrix(0.60194464,0,0,0.60194464,12.720754,903.57902)"
       sodipodi:type="arc"
       style="fill:#000000;fill-opacity:1;stroke:none"
       id="path3753-0-6"
       sodipodi:cx="73.605949"
       sodipodi:cy="48.513012"
       sodipodi:rx="5.0185876"
       sodipodi:ry="5.0185876"
       d="m 78.624537,48.513012 c 0,2.771689 -2.246898,5.018588 -5.018588,5.018588 -2.771689,0 -5.018587,-2.246899 -5.018587,-5.018588 0,-2.771689 2.246898,-5.018588 5.018587,-5.018588 2.77169,0 5.018588,2.246899 5.018588,5.018588 z" />
    <path
       transform="matrix(0.60194464,0,0,0.60194464,12.720754,939.6957)"
       sodipodi:type="arc"
       style="fill:#000000;fill-opacity:1;stroke:none"
       id="path3753-0-6-2"
       sodipodi:cx="73.605949"
       sodipodi:cy="48.513012"
       sodipodi:rx="5.0185876"
       sodipodi:ry="5.0185876"
       d="m 78.624537,48.513012 c 0,2.771689 -2.246898,5.018588 -5.018588,5.018588 -2.771689,0 -5.018587,-2.246899 -5.018587,-5.018588 0,-2.771689 2.246898,-5.018588 5.018587,-5.018588 2.77169,0 5.018588,2.246899 5.018588,5.018588 z" />
    <path
       sodipodi:type="arc"
       style="fill:none;stroke:#000000;stroke-width:3;stroke-miterlimit:4;stroke-opacity:1;stroke-dasharray:none"
       id="path3823"
       sodipodi:cx="73.605949"
       sodipodi:cy="148.32713"
       sodipodi:rx="40.148701"
       sodipodi:ry="40.148701"
       d="m 113.75465,148.32713 c 0,22.17352 -17.975185,40.1487 -40.148701,40.1487 -22.173515,0 -40.1487,-17.97518 -40.1487,-40.1487 0,-22.17351 17.975185,-40.1487 40.1487,-40.1487 22.173516,0 40.148701,17.97519 40.148701,40.1487 z"
       transform="matrix(0.60194464,0,0,0.60194464,12.720754,819.30677)" />
    <path
       style="fill:none;stroke:#000000;stroke-width:1.80583394;stroke-linecap:butt;stroke-linejoin:miter;stroke-miterlimit:4;stroke-opacity:1;stroke-dasharray:none"
       d="m 56.691803,848.50892 0,36.25094"
       id="path3825"
       inkscape:connector-curvature="0" />
    <path
       style="fill:none;stroke:#000000;stroke-width:1.80583394;stroke-linecap:butt;stroke-linejoin:miter;stroke-miterlimit:4;stroke-opacity:1;stroke-dasharray:none"
       d="m 56.691803,968.67407 0,-35.24396"
       id="path3827"
       inkscape:connector-curvature="0" />
    <path
       transform="matrix(0.60194464,0,0,0.60194464,109.0319,819.30677)"
       sodipodi:type="arc"
       style="fill:#000000;fill-opacity:1;stroke:none"
       id="path3753-4"
       sodipodi:cx="73.605949"
       sodipodi:cy="48.513012"
       sodipodi:rx="5.0185876"
       sodipodi:ry="5.0185876"
       d="m 78.624537,48.513012 c 0,2.771689 -2.246898,5.018588 -5.018588,5.018588 -2.771689,0 -5.018587,-2.246899 -5.018587,-5.018588 0,-2.771689 2.246898,-5.018588 5.018587,-5.018588 2.77169,0 5.018588,2.246899 5.018588,5.018588 z" />
    <path
       transform="matrix(0.60194464,0,0,0.60194464,109.0319,855.42345)"
       sodipodi:type="arc"
       style="fill:#000000;fill-opacity:1;stroke:none"
       id="path3753-0-5"
       sodipodi:cx="73.605949"
       sodipodi:cy="48.513012"
       sodipodi:rx="5.0185876"
       sodipodi:ry="5.0185876"
       d="m 78.624537,48.513012 c 0,2.771689 -2.246898,5.018588 -5.018588,5.018588 -2.771689,0 -5.018587,-2.246899 -5.018587,-5.018588 0,-2.771689 2.246898,-5.018588 5.018587,-5.018588 2.77169,0 5.018588,2.246899 5.018588,5.018588 z" />
    <path
       transform="matrix(0.60194464,0,0,0.60194464,109.0319,903.57902)"
       sodipodi:type="arc"
       style="fill:#000000;fill-opacity:1;stroke:none"
       id="path3753-0-6-3"
       sodipodi:cx="73.605949"
       sodipodi:cy="48.513012"
       sodipodi:rx="5.0185876"
       sodipodi:ry="5.0185876"
       d="m 78.624537,48.513012 c 0,2.771689 -2.246898,5.018588 -5.018588,5.018588 -2.771689,0 -5.018587,-2.246899 -5.018587,-5.018588 0,-2.771689 2.246898,-5.018588 5.018587,-5.018588 2.77169,0 5.018588,2.246899 5.018588,5.018588 z" />
    <path
       transform="matrix(0.60194464,0,0,0.60194464,109.0319,939.6957)"
       sodipodi:type="arc"
       style="fill:#000000;fill-opacity:1;stroke:none"
       id="path3753-0-6-2-5"
       sodipodi:cx="73.605949"
       sodipodi:cy="48.513012"
       sodipodi:rx="5.0185876"
       sodipodi:ry="5.0185876"
       d="m 78.624537,48.513012 c 0,2.771689 -2.246898,5.018588 -5.018588,5.018588 -2.771689,0 -5.018587,-2.246899 -5.018587,-5.018588 0,-2.771689 2.246898,-5.018588 5.018587,-5.018588 2.77169,0 5.018588,2.246899 5.018588,5.018588 z" />
    <path
       transform="matrix(0.60194464,0,0,0.60194464,109.0319,819.30677)"
       sodipodi:type="arc"
       style="fill:none;stroke:#000000;stroke-width:3;stroke-miterlimit:4;stroke-opacity:1;stroke-dasharray:none"
       id="path3823-1"
       sodipodi:cx="73.605949"
       sodipodi:cy="148.32713"
       sodipodi:rx="40.148701"
       sodipodi:ry="40.148701"
       d="m 113.75465,148.32713 c 0,22.17352 -17.975185,40.1487 -40.148701,40.1487 -22.173515,0 -40.1487,-17.97518 -40.1487,-40.1487 0,-22.17351 17.975185,-40.1487 40.1487,-40.1487 22.173516,0 40.148701,17.97519 40.148701,40.1487 z" />
    <path
       style="fill:none;stroke:#000000;stroke-width:1.80583394;stroke-linecap:butt;stroke-linejoin:miter;stroke-miterlimit:4;stroke-opacity:1;stroke-dasharray:none"
       d="m 153.00295,848.50892 0,36.25094"
       id="path3825-5"
       inkscape:connector-curvature="0" />
    <path
       style="fill:none;stroke:#000000;stroke-width:1.80583394;stroke-linecap:butt;stroke-linejoin:miter;stroke-miterlimit:4;stroke-opacity:1;stroke-dasharray:none"
       d="m 153.00295,968.67405 0,-35.24394"
       id="path3827-1"
       inkscape:connector-curvature="0" />
    <flowRoot
       xml:space="preserve"
       id="flowRoot3865"
       style="font-size:40px;font-style:normal;font-weight:normal;line-height:125%;letter-spacing:0px;word-spacing:0px;fill:#000000;fill-opacity:1;stroke:none;font-family:Sans"
       transform="matrix(0.60194464,0,0,0.60194464,15.730477,810.2776)"><flowRegion
         id="flowRegion3867"><rect
           id="rect3869"
           width="100"
           height="74"
           x="78"
           y="28" /></flowRegion><flowPara
         id="flowPara3871"
         style="font-size:20px">1</flowPara></flowRoot>    <flowRoot
       xml:space="preserve"
       id="flowRoot3865-1"
       style="font-size:40px;font-style:normal;font-weight:normal;line-height:125%;letter-spacing:0px;word-spacing:0px;fill:#000000;fill-opacity:1;stroke:none;font-family:Sans"
       transform="matrix(0.60194464,0,0,0.60194464,111.11577,809.88938)"><flowRegion
         id="flowRegion3867-6"><rect
           id="rect3869-8"
           width="100"
           height="74"
           x="78"
           y="28" /></flowRegion><flowPara
         id="flowPara3871-1"
         style="font-size:20px">2</flowPara></flowRoot>    <flowRoot
       xml:space="preserve"
       id="flowRoot3865-6"
       style="font-size:40px;font-style:normal;font-weight:normal;line-height:125%;letter-spacing:0px;word-spacing:0px;fill:#000000;fill-opacity:1;stroke:none;font-family:Sans"
       transform="matrix(0.60194464,0,0,0.60194464,117.04323,949.814)"><flowRegion
         id="flowRegion3867-4"><rect
           id="rect3869-81"
           width="100"
           height="74"
           x="78"
           y="28" /></flowRegion><flowPara
         id="flowPara3871-7"
         style="font-size:20px">1</flowPara></flowRoot>    <flowRoot
       xml:space="preserve"
       id="flowRoot3865-1-8"
       style="font-size:40px;font-style:normal;font-weight:normal;line-height:125%;letter-spacing:0px;word-spacing:0px;fill:#000000;fill-opacity:1;stroke:none;font-family:Sans"
       transform="matrix(0.60194464,0,0,0.60194464,19.285713,954.43545)"><flowRegion
         id="flowRegion3867-6-5"><rect
           id="rect3869-8-7"
           width="100"
           height="74"
           x="78"
           y="28" /></flowRegion><flowPara
         id="flowPara3871-1-4"
         style="font-size:20px">2</flowPara></flowRoot>    <path
       style="fill:none;stroke:#000000;stroke-width:0.60194463px;stroke-linecap:butt;stroke-linejoin:miter;stroke-opacity:1;marker-start:url(#Arrow1Mstart);marker-end:url(#Arrow1Mend)"
       d="m 68.701606,968.58904 69.825574,0"
       id="path3966"
       inkscape:connector-curvature="0" />
    <path
       style="fill:none;stroke:#000000;stroke-width:0.60194463px;stroke-linecap:butt;stroke-linejoin:miter;stroke-opacity:1;marker-start:url(#Arrow1Mstart);marker-end:url(#Arrow1Mend)"
       d="m 68.701606,848.20013 69.825574,0"
       id="path3966-3"
       inkscape:connector-curvature="0" />
    <path
       style="fill:none;stroke:#000000;stroke-width:1px;stroke-linecap:butt;stroke-linejoin:miter;stroke-opacity:1;marker-end:url(#Arrow1Lend)"
       d="m 214.81943,159.27771 58.53051,0"
       id="path4831"
       inkscape:connector-curvature="0"
       transform="translate(0,752.36218)" />
    <path
       sodipodi:type="arc"
       style="fill:#000000;fill-opacity:1;stroke:none"
       id="path3753-01"
       sodipodi:cx="73.605949"
       sodipodi:cy="48.513012"
       sodipodi:rx="5.0185876"
       sodipodi:ry="5.0185876"
       d="m 78.624537,48.513012 c 0,2.771689 -2.246898,5.018588 -5.018588,5.018588 -2.771689,0 -5.018587,-2.246899 -5.018587,-5.018588 0,-2.771689 2.246898,-5.018588 5.018587,-5.018588 2.77169,0 5.018588,2.246899 5.018588,5.018588 z"
       transform="matrix(0.60194464,0,0,0.60194464,338.72075,819.30677)" />
    <path
       transform="matrix(0.60194464,0,0,0.60194464,292.72075,855.42345)"
       sodipodi:type="arc"
       style="fill:#000000;fill-opacity:1;stroke:none"
       id="path3753-0-1"
       sodipodi:cx="73.605949"
       sodipodi:cy="48.513012"
       sodipodi:rx="5.0185876"
       sodipodi:ry="5.0185876"
       d="m 78.624537,48.513012 c 0,2.771689 -2.246898,5.018588 -5.018588,5.018588 -2.771689,0 -5.018587,-2.246899 -5.018587,-5.018588 0,-2.771689 2.246898,-5.018588 5.018587,-5.018588 2.77169,0 5.018588,2.246899 5.018588,5.018588 z" />
    <path
       transform="matrix(0.60194464,0,0,0.60194464,292.72075,903.57902)"
       sodipodi:type="arc"
       style="fill:#000000;fill-opacity:1;stroke:none"
       id="path3753-0-6-7"
       sodipodi:cx="73.605949"
       sodipodi:cy="48.513012"
       sodipodi:rx="5.0185876"
       sodipodi:ry="5.0185876"
       d="m 78.624537,48.513012 c 0,2.771689 -2.246898,5.018588 -5.018588,5.018588 -2.771689,0 -5.018587,-2.246899 -5.018587,-5.018588 0,-2.771689 2.246898,-5.018588 5.018587,-5.018588 2.77169,0 5.018588,2.246899 5.018588,5.018588 z" />
    <path
       sodipodi:type="arc"
       style="fill:none;stroke:#000000;stroke-width:3;stroke-miterlimit:4;stroke-opacity:1;stroke-dasharray:none"
       id="path3823-8"
       sodipodi:cx="73.605949"
       sodipodi:cy="148.32713"
       sodipodi:rx="40.148701"
       sodipodi:ry="40.148701"
       d="m 113.75465,148.32713 c 0,22.17352 -17.975185,40.1487 -40.148701,40.1487 -22.173515,0 -40.1487,-17.97518 -40.1487,-40.1487 0,-22.17351 17.975185,-40.1487 40.1487,-40.1487 22.173516,0 40.148701,17.97519 40.148701,40.1487 z"
       transform="matrix(0.60194464,0,0,0.60194464,292.72075,819.30677)" />
    <path
       style="fill:none;stroke:#000000;stroke-width:1.80583394;stroke-linecap:butt;stroke-linejoin:miter;stroke-miterlimit:4;stroke-opacity:1;stroke-dasharray:none"
       d="m 384.6918,848.50892 -48,36.25094"
       id="path3825-9"
       inkscape:connector-curvature="0"
       sodipodi:nodetypes="cc" />
    <path
       style="fill:none;stroke:#000000;stroke-width:1.80583394;stroke-linecap:butt;stroke-linejoin:miter;stroke-miterlimit:4;stroke-opacity:1;stroke-dasharray:none"
       d="M 385.88234,968.67407 336.6918,933.43011"
       id="path3827-2"
       inkscape:connector-curvature="0"
       sodipodi:nodetypes="cc" />
    <path
       transform="matrix(0.60194464,0,0,0.60194464,389.0319,855.42345)"
       sodipodi:type="arc"
       style="fill:#000000;fill-opacity:1;stroke:none"
       id="path3753-0-5-2"
       sodipodi:cx="73.605949"
       sodipodi:cy="48.513012"
       sodipodi:rx="5.0185876"
       sodipodi:ry="5.0185876"
       d="m 78.624537,48.513012 c 0,2.771689 -2.246898,5.018588 -5.018588,5.018588 -2.771689,0 -5.018587,-2.246899 -5.018587,-5.018588 0,-2.771689 2.246898,-5.018588 5.018587,-5.018588 2.77169,0 5.018588,2.246899 5.018588,5.018588 z" />
    <path
       transform="matrix(0.60194464,0,0,0.60194464,389.0319,903.57902)"
       sodipodi:type="arc"
       style="fill:#000000;fill-opacity:1;stroke:none"
       id="path3753-0-6-3-0"
       sodipodi:cx="73.605949"
       sodipodi:cy="48.513012"
       sodipodi:rx="5.0185876"
       sodipodi:ry="5.0185876"
       d="m 78.624537,48.513012 c 0,2.771689 -2.246898,5.018588 -5.018588,5.018588 -2.771689,0 -5.018587,-2.246899 -5.018587,-5.018588 0,-2.771689 2.246898,-5.018588 5.018587,-5.018588 2.77169,0 5.018588,2.246899 5.018588,5.018588 z" />
    <path
       transform="matrix(0.60194464,0,0,0.60194464,341.0319,939.6957)"
       sodipodi:type="arc"
       style="fill:#000000;fill-opacity:1;stroke:none"
       id="path3753-0-6-2-5-7"
       sodipodi:cx="73.605949"
       sodipodi:cy="48.513012"
       sodipodi:rx="5.0185876"
       sodipodi:ry="5.0185876"
       d="m 78.624537,48.513012 c 0,2.771689 -2.246898,5.018588 -5.018588,5.018588 -2.771689,0 -5.018587,-2.246899 -5.018587,-5.018588 0,-2.771689 2.246898,-5.018588 5.018587,-5.018588 2.77169,0 5.018588,2.246899 5.018588,5.018588 z" />
    <path
       transform="matrix(0.60194464,0,0,0.60194464,389.0319,819.30677)"
       sodipodi:type="arc"
       style="fill:none;stroke:#000000;stroke-width:3;stroke-miterlimit:4;stroke-opacity:1;stroke-dasharray:none"
       id="path3823-1-5"
       sodipodi:cx="73.605949"
       sodipodi:cy="148.32713"
       sodipodi:rx="40.148701"
       sodipodi:ry="40.148701"
       d="m 113.75465,148.32713 c 0,22.17352 -17.975185,40.1487 -40.148701,40.1487 -22.173515,0 -40.1487,-17.97518 -40.1487,-40.1487 0,-22.17351 17.975185,-40.1487 40.1487,-40.1487 22.173516,0 40.148701,17.97519 40.148701,40.1487 z" />
    <path
       style="fill:none;stroke:#000000;stroke-width:1.80583394;stroke-linecap:butt;stroke-linejoin:miter;stroke-miterlimit:4;stroke-opacity:1;stroke-dasharray:none"
       d="m 383.00295,848.50892 50,36.25094"
       id="path3825-5-6"
       inkscape:connector-curvature="0"
       sodipodi:nodetypes="cc" />
    <path
       style="fill:none;stroke:#000000;stroke-width:1.80583394;stroke-linecap:butt;stroke-linejoin:miter;stroke-miterlimit:4;stroke-opacity:1;stroke-dasharray:none"
       d="m 385.68041,968.67405 47.32254,-35.24394"
       id="path3827-1-2"
       inkscape:connector-curvature="0"
       sodipodi:nodetypes="cc" />
    <flowRoot
       xml:space="preserve"
       id="flowRoot3045"
       style="font-size:40px;font-style:normal;font-weight:normal;line-height:125%;letter-spacing:0px;word-spacing:0px;fill:#000000;fill-opacity:1;stroke:none;font-family:Sans"
       transform="translate(6.6914498,751.80456)"><flowRegion
         id="flowRegion3047"><rect
           id="rect3049"
           width="49.070633"
           height="64.126396"
           x="3.9033458"
           y="118.21561" /></flowRegion><flowPara
         id="flowPara3051"
         style="font-size:25px">G</flowPara></flowRoot>    <flowRoot
       xml:space="preserve"
       id="flowRoot3045-0"
       style="font-size:40px;font-style:normal;font-weight:normal;line-height:125%;letter-spacing:0px;word-spacing:0px;fill:#000000;fill-opacity:1;stroke:none;font-family:Sans"
       transform="translate(176.32204,742.11686)"><flowRegion
         id="flowRegion3047-2"><rect
           id="rect3049-3"
           width="49.070633"
           height="64.126396"
           x="3.9033458"
           y="118.21561" /></flowRegion><flowPara
         id="flowPara3051-6"
         style="font-size:25px">G'</flowPara></flowRoot>  </g>
</svg>
